<?xml version="1.0" encoding="UTF-8" standalone="no"?>
<!-- Created with Inkscape (http://www.inkscape.org/) -->

<svg
     xmlns:dc="http://purl.org/dc/elements/1.1/"
     xmlns:cc="http://creativecommons.org/ns#"
     xmlns:rdf="http://www.w3.org/1999/02/22-rdf-syntax-ns#"
     xmlns:svg="http://www.w3.org/2000/svg"
     xmlns="http://www.w3.org/2000/svg"
     xmlns:sodipodi="http://sodipodi.sourceforge.net/DTD/sodipodi-0.dtd"
     xmlns:inkscape="http://www.inkscape.org/namespaces/inkscape"
     width="1859.0908"
     height="1159.8485"
     id="svg2"
     version="1.1"
     inkscape:version="0.48.5 r10040"
     sodipodi:docname="wings04.svg">
    <defs
         id="defs4" />
    <sodipodi:namedview
         id="base"
         pagecolor="#ffffff"
         bordercolor="#666666"
         borderopacity="1.0"
         inkscape:pageopacity="0.0"
         inkscape:pageshadow="2"
         inkscape:zoom="0.66"
         inkscape:cx="776.57237"
         inkscape:cy="527.80487"
         inkscape:document-units="px"
         inkscape:current-layer="layer1"
         showgrid="false"
         fit-margin-top="0"
         fit-margin-left="0"
         fit-margin-right="0"
         fit-margin-bottom="0" />
    <metadata
         id="metadata7">
        <rdf:RDF>
            <cc:Work
                 rdf:about="">
                <dc:format>image/svg+xml</dc:format>
                <dc:type
                     rdf:resource="http://purl.org/dc/dcmitype/StillImage" />
                <dc:title />
            </cc:Work>
        </rdf:RDF>
    </metadata>
    <g
         inkscape:label="Layer 1"
         inkscape:groupmode="layer"
         id="layer1"
         transform="translate(-98.452026,-2217.2859)">
        <rect
             y="2217.2859"
             x="-1439.3611"
             height="1159.8485"
             width="1340.9091"
             id="use4484"
             style="color:#000000;fill:#477a8d;fill-opacity:1;fill-rule:nonzero;stroke:none;stroke-width:1;marker:none;visibility:visible;display:inline;overflow:visible;enable-background:accumulate"
             transform="scale(-1,1)" />
        <path
             style="color:#000000;fill:#416da9;fill-opacity:1;fill-rule:nonzero;stroke:none;stroke-width:1;marker:none;visibility:visible;display:inline;overflow:visible;enable-background:accumulate"
             d="M 1489.3611,2217.2859 1957.5429,2217.2859 1957.5429,3377.1344 1365.3611,3377.1344 z"
             id="rect4244"
             inkscape:connector-curvature="0"
             sodipodi:nodetypes="ccccc" />
        <path
             sodipodi:nodetypes="ccccc"
             inkscape:connector-curvature="0"
             id="path4232"
             d="M 1330.0782,3316.6316 C 1304.7953,3314.2555 1228.0535,3307.4963 1196.3361,3394.8646 L 1209.6228,3429.7133 C 1223.1285,3413.8872 1246.0929,3403.1019 1273.9922,3402.1096 1267.5447,3368.5317 1288.2557,3330.6591 1330.0782,3316.6316 z"
             style="color:#000000;fill:#968abb;fill-opacity:1;fill-rule:nonzero;stroke:none;stroke-width:1;marker:none;visibility:visible;display:inline;overflow:visible;enable-background:accumulate"
             inkscape:transform-center-x="-169.55982"
             inkscape:transform-center-y="40.544415" />
        <path
             sodipodi:nodetypes="ccccc"
             inkscape:connector-curvature="0"
             id="path4234"
             d="M 1326.2031,3317.4408 C 1308.9378,3322.483 1267.265,3344.5156 1273.0642,3401.2682 L 1293.7689,3416.8903 C 1296.6804,3402.9972 1304.6471,3393.0806 1321.0282,3383.3624 1306.1866,3365.3651 1305.7481,3339.5175 1326.2031,3317.4408 z"
             style="color:#000000;fill:#62549e;fill-opacity:1;fill-rule:nonzero;stroke:none;stroke-width:1;marker:none;visibility:visible;display:inline;overflow:visible;enable-background:accumulate"
             inkscape:transform-center-x="-205.71184"
             inkscape:transform-center-y="34.962077" />
        <path
             sodipodi:nodetypes="ccccc"
             inkscape:connector-curvature="0"
             id="path4236"
             d="M 1337.3476,3319.0437 C 1320.1436,3306.1978 1208.2459,3242.3925 1093.8222,3332.8868 L 1085.0297,3389.958 C 1115.7341,3378.084 1153.1633,3373.7752 1196.3499,3395.6331 1209.0247,3356.6779 1263.6195,3308.0125 1337.3476,3319.0437 z"
             style="color:#000000;fill:#a6c4db;fill-opacity:1;fill-rule:nonzero;stroke:none;stroke-width:1;marker:none;visibility:visible;display:inline;overflow:visible;enable-background:accumulate"
             inkscape:transform-center-x="-117.54132"
             inkscape:transform-center-y="8.2234561" />
        <path
             sodipodi:nodetypes="ccccc"
             inkscape:connector-curvature="0"
             id="path4238"
             d="M 1354.352,3402.0358 C 1424.7668,3270.39 1582.495,2844.4075 1236.1594,2554.3027 L 1001.8669,2543.6425 C 1045.1771,2645.844 1080.8287,2768.6955 1007.9776,2914.283 1206.2518,2963.4589 1369.4378,3175.7848 1354.352,3402.0358 z"
             style="color:#000000;fill:#4cb5bc;fill-opacity:1;fill-rule:nonzero;stroke:none;stroke-width:1;marker:none;visibility:visible;display:inline;overflow:visible;enable-background:accumulate" />
        <path
             sodipodi:nodetypes="ccccc"
             inkscape:connector-curvature="0"
             id="path4240"
             d="M 1343.0032,3324.8572 C 1315.5061,3272.1808 1205.9208,3131.3365 1005.204,3182.8027 L 949.55339,3252.6469 C 997.81591,3259.038 1056.2336,3281.4694 1093.6744,3334.9995 1137.7704,3293.4593 1262.2496,3260.566 1343.0032,3324.8572 z"
             style="color:#000000;fill:#a3e7e0;fill-opacity:1;fill-rule:nonzero;stroke:none;stroke-width:1;marker:none;visibility:visible;display:inline;overflow:visible;enable-background:accumulate" />
        <path
             sodipodi:nodetypes="ccccc"
             inkscape:connector-curvature="0"
             id="path4242"
             d="M 1355.5082,3366.1859 C 1369.6612,3256.1879 1315.8052,2990.4104 1008.1428,2913.9529 L 877.37467,2972.2784 C 937.04832,3012.1547 999.09646,3085.1914 1004.8233,3183.2549 1130.1168,3147.4851 1307.2949,3213.775 1355.5082,3366.1859 z"
             style="color:#000000;fill:#79ddcc;fill-opacity:1;fill-rule:nonzero;stroke:none;stroke-width:1;marker:none;visibility:visible;display:inline;overflow:visible;enable-background:accumulate" />
        <path
             sodipodi:nodetypes="ccccc"
             inkscape:connector-curvature="0"
             id="path4232-6"
             d="M 1353.4488,2329.4488 C 1328.683,2323.8338 1253.4525,2307.2396 1210.7387,2389.7911 L 1219.4229,2426.0616 C 1234.8558,2412.1083 1259.0188,2404.3729 1286.8133,2406.9848 1284.7474,2372.856 1310.1671,2337.9687 1353.4488,2329.4488 z"
             style="color:#000000;fill:#968abb;fill-opacity:1;fill-rule:nonzero;stroke:none;stroke-width:1;marker:none;visibility:visible;display:inline;overflow:visible;enable-background:accumulate"
             inkscape:transform-center-x="-169.55982"
             inkscape:transform-center-y="40.544415" />
        <path
             sodipodi:nodetypes="ccccc"
             inkscape:connector-curvature="0"
             id="path4234-1"
             d="M 1349.5017,2329.7518 C 1331.7305,2332.5266 1287.5655,2349.0041 1286.0014,2406.0308 L 1304.5199,2424.1913 C 1309.1978,2410.7893 1318.3762,2401.9823 1335.8733,2394.4565 1323.4751,2374.6964 1326.3718,2349.0079 1349.5017,2329.7518 z"
             style="color:#000000;fill:#62549e;fill-opacity:1;fill-rule:nonzero;stroke:none;stroke-width:1;marker:none;visibility:visible;display:inline;overflow:visible;enable-background:accumulate"
             inkscape:transform-center-x="-205.71184"
             inkscape:transform-center-y="34.962077" />
        <path
             sodipodi:nodetypes="ccccc"
             inkscape:connector-curvature="0"
             id="path4236-0"
             d="M 1360.3466,2332.7777 C 1344.9419,2317.8215 1242.2014,2240.1258 1117.0683,2315.1171 L 1100.9932,2370.579 C 1132.9719,2362.7616 1170.6443,2363.313 1210.6533,2390.5549 1228.2434,2353.5583 1288.6553,2312.3356 1360.3466,2332.7777 z"
             style="color:#000000;fill:#a6c4db;fill-opacity:1;fill-rule:nonzero;stroke:none;stroke-width:1;marker:none;visibility:visible;display:inline;overflow:visible;enable-background:accumulate"
             inkscape:transform-center-x="-117.54132"
             inkscape:transform-center-y="8.2234561" />
        <path
             sodipodi:nodetypes="ccccc"
             inkscape:connector-curvature="0"
             id="path4238-6"
             d="M 1366.5123,2417.2693 C 1453.3077,2295.7974 1664.6255,1893.6979 1358.5707,1561.3734 L 1127.6065,1520.6039 C 1157.3826,1627.5352 1176.9023,1753.9571 1085.894,1888.9404 1276.176,1963.2619 1410.6339,2194.8499 1366.5123,2417.2693 z"
             style="color:#000000;fill:#4cb5bc;fill-opacity:1;fill-rule:nonzero;stroke:none;stroke-width:1;marker:none;visibility:visible;display:inline;overflow:visible;enable-background:accumulate" />
        <path
             sodipodi:nodetypes="ccccc"
             inkscape:connector-curvature="0"
             id="path4240-3"
             d="M 1365.2058,2339.2717 C 1344.7275,2283.4905 1254.2099,2129.6965 1048.5338,2154.8628 L 984.34505,2216.9516 C 1031.3812,2229.51 1086.4205,2259.2838 1116.6494,2317.1932 1165.7318,2281.683 1293.4123,2265.1083 1365.2058,2339.2717 z"
             style="color:#000000;fill:#a3e7e0;fill-opacity:1;fill-rule:nonzero;stroke:none;stroke-width:1;marker:none;visibility:visible;display:inline;overflow:visible;enable-background:accumulate" />
        <path
             sodipodi:nodetypes="ccccc"
             inkscape:connector-curvature="0"
             id="path4242-2"
             d="M 1372.2795,2381.8674 C 1400.4922,2274.6111 1381.3418,2004.109 1086.1004,1888.6344 L 948.90536,1929.6185 C 1002.9416,1976.8536 1055.0584,2057.2785 1048.0979,2155.2622 1176.9567,2135.94 1344.1128,2224.5136 1372.2795,2381.8674 z"
             style="color:#000000;fill:#79ddcc;fill-opacity:1;fill-rule:nonzero;stroke:none;stroke-width:1;marker:none;visibility:visible;display:inline;overflow:visible;enable-background:accumulate" />
        <path
             style="color:#000000;fill:#3996b1;fill-opacity:1;fill-rule:nonzero;stroke:none;stroke-width:1;marker:none;visibility:visible;display:inline;overflow:visible;enable-background:accumulate"
             d="M 1326.2164,3424.5586 C 1530.5444,3291.2083 2037.5596,2864.2609 1815.2451,2223.2257 L 1506.6211,2005.746 C 1509.2022,2110.1548 1398.6206,2464.9524 1233.4919,2555.2392 1478.3125,2791.5005 1507.2137,3146.9788 1326.2164,3424.5586 z"
             id="path3094-3-5"
             inkscape:connector-curvature="0"
             sodipodi:nodetypes="ccccc" />
        <rect
             transform="scale(-1,1)"
             style="color:#000000;fill:#416da9;fill-opacity:1;fill-rule:nonzero;stroke:none;stroke-width:1;marker:none;visibility:visible;display:inline;overflow:visible;enable-background:accumulate"
             id="use4488"
             width="379.54544"
             height="388.63644"
             x="-470.2702"
             y="2210.4678" />
        <g
             id="g3017">
            <path
                 style="color:#000000;fill:#a3e7e0;fill-opacity:1;fill-rule:nonzero;stroke:none;stroke-width:1;marker:none;visibility:visible;display:inline;overflow:visible;enable-background:accumulate"
                 d="M 627.45203,2375.3484 C 635.07754,2434.2784 691.31451,2604.2914 897.46012,2625.2673 L 973.79803,2578.9237 C 930.70748,2556.2671 883.6223,2515.0509 866.95882,2451.8875 811.2348,2475.6547 685.9702,2460.2826 627.45203,2375.3484 z"
                 id="path4240-3-4"
                 inkscape:connector-curvature="0"
                 sodipodi:nodetypes="ccccc" />
            <path
                 inkscape:transform-center-y="40.544415"
                 inkscape:transform-center-x="-169.55982"
                 style="color:#000000;fill:#968abb;fill-opacity:1;fill-rule:nonzero;stroke:none;stroke-width:1;marker:none;visibility:visible;display:inline;overflow:visible;enable-background:accumulate"
                 d="M 638.74354,2387.5297 C 661.65256,2398.4864 731.34511,2431.3184 791.26925,2360.2669 L 790.82743,2322.9738 C 772.68923,2333.1656 747.41347,2335.3618 720.88624,2326.6634 715.3478,2360.4031 682.83755,2388.7996 638.74354,2387.5297 z"
                 id="path4232-6-6"
                 inkscape:connector-curvature="0"
                 sodipodi:nodetypes="ccccc" />
            <path
                 inkscape:transform-center-y="34.962077"
                 inkscape:transform-center-x="-205.71184"
                 style="color:#000000;fill:#62549e;fill-opacity:1;fill-rule:nonzero;stroke:none;stroke-width:1;marker:none;visibility:visible;display:inline;overflow:visible;enable-background:accumulate"
                 d="M 642.6598,2388.1078 C 660.60443,2389.3347 707.32095,2383.0398 721.46679,2327.7734 L 707.42663,2305.965 C 699.89872,2317.9993 688.99884,2324.5567 670.27012,2328.0236 677.98768,2350.0376 669.47772,2374.448 642.6598,2388.1078 z"
                 id="path4234-1-1"
                 inkscape:connector-curvature="0"
                 sodipodi:nodetypes="ccccc" />
            <path
                 inkscape:transform-center-y="8.2234561"
                 inkscape:transform-center-x="-117.54132"
                 style="color:#000000;fill:#a6c4db;fill-opacity:1;fill-rule:nonzero;stroke:none;stroke-width:1;marker:none;visibility:visible;display:inline;overflow:visible;enable-background:accumulate"
                 d="M 632.75344,2382.7568 C 644.46629,2400.7513 727.46425,2499.2579 866.09089,2453.8194 L 894.04167,2403.2904 C 861.12584,2403.8367 824.50965,2394.9617 791.52155,2359.5408 766.17998,2391.7271 698.14302,2418.558 632.75344,2382.7568 z"
                 id="path4236-0-5"
                 inkscape:connector-curvature="0"
                 sodipodi:nodetypes="ccccc" />
        </g>
        <path
             sodipodi:nodetypes="ccccc"
             inkscape:connector-curvature="0"
             id="path4442"
             d="M -403.85426,3324.9127 C -160.24798,3311.1938 492.12287,3193.8874 619.021,2527.369 L 459.92465,2184.9737 C 410.10557,2276.7664 137.35257,2529.1856 -50.80337,2525.1196 43.621321,2851.9843 -108.56156,3174.5374 -403.85426,3324.9127 z"
             style="color:#000000;fill:#3996b1;fill-opacity:1;fill-rule:nonzero;stroke:none;stroke-width:1;marker:none;visibility:visible;display:inline;overflow:visible;enable-background:accumulate" />
        <path
             sodipodi:nodetypes="ccccc"
             inkscape:connector-curvature="0"
             id="path4232-6-6-5"
             d="M 583.94925,3059.1474 C 609.17349,3062.0814 685.74724,3070.5344 719.38703,2983.8881 L 706.87345,2948.7544 C 693.02141,2964.2782 669.82435,2974.5536 641.90994,2974.9293 647.61406,3008.6414 626.07144,3046.0472 583.94925,3059.1474 z"
             style="color:#000000;fill:#968abb;fill-opacity:1;fill-rule:nonzero;stroke:none;stroke-width:1;marker:none;visibility:visible;display:inline;overflow:visible;enable-background:accumulate"
             inkscape:transform-center-x="-169.55982"
             inkscape:transform-center-y="40.544415" />
        <path
             sodipodi:nodetypes="ccccc"
             inkscape:connector-curvature="0"
             id="path4234-1-1-6"
             d="M 587.84128,3058.424 C 605.21376,3053.7644 647.36313,3032.6578 642.81912,2975.791 L 622.4646,2959.7153 C 619.24688,2973.5407 611.06305,2983.2788 594.47126,2992.6328 608.91164,3010.9536 608.77901,3036.8045 587.84128,3058.424 z"
             style="color:#000000;fill:#62549e;fill-opacity:1;fill-rule:nonzero;stroke:none;stroke-width:1;marker:none;visibility:visible;display:inline;overflow:visible;enable-background:accumulate"
             inkscape:transform-center-x="-205.71184"
             inkscape:transform-center-y="34.962077" />
        <path
             sodipodi:nodetypes="ccccc"
             inkscape:connector-curvature="0"
             id="path4236-0-5-9"
             d="M 576.73491,3056.5753 C 593.65092,3069.7981 704.11173,3136.0599 820.5067,3048.1155 L 830.55787,2991.2525 C 799.59864,3002.4452 762.08339,3005.9261 719.39021,2983.1195 705.85791,3021.7851 650.20132,3069.2326 576.73491,3056.5753 z"
             style="color:#000000;fill:#a6c4db;fill-opacity:1;fill-rule:nonzero;stroke:none;stroke-width:1;marker:none;visibility:visible;display:inline;overflow:visible;enable-background:accumulate"
             inkscape:transform-center-x="-117.54132"
             inkscape:transform-center-y="8.2234561" />
    </g>
</svg>
