<?xml version="1.0" encoding="UTF-8" standalone="no"?>
<!-- Created with Inkscape (http://www.inkscape.org/) -->
<svg xmlns:inkscape="http://www.inkscape.org/namespaces/inkscape" xmlns:rdf="http://www.w3.org/1999/02/22-rdf-syntax-ns#" xmlns="http://www.w3.org/2000/svg" xmlns:xlink="http://www.w3.org/1999/xlink" xmlns:ns1="http://sozi.baierouge.fr" xmlns:cc="http://creativecommons.org/ns#" xmlns:sodipodi="http://sodipodi.sourceforge.net/DTD/sodipodi-0.dtd" xmlns:dc="http://purl.org/dc/elements/1.1/" id="svg2" xml:space="preserve" viewBox="0 0 167.55 121.63" version="1.1" inkscape:version="0.91 r13725">
  <defs id="defs6">
    <linearGradient id="linearGradient24" y2="-69.077" gradientUnits="userSpaceOnUse" x2="-18.336" gradientTransform="matrix(-.7976 .06192 .06192 .7976 .0075514 97.302)" y1="-69.077" x1="-168.61">
      <stop id="stop26" style="stop-color:#674d4b" offset="0"/>
      <stop id="stop28" style="stop-color:#523e3b" offset=".1882"/>
      <stop id="stop30" style="stop-color:#3b2d29" offset=".43920"/>
      <stop id="stop32" style="stop-color:#332723" offset="0.6"/>
      <stop id="stop34" style="stop-color:#46322f" offset=".79610"/>
      <stop id="stop36" style="stop-color:#5e413f" offset="1"/>
    </linearGradient>
    <clipPath id="clipPath44">
      <path id="path46" d="m8 71.302h123v-72h-123v72z" inkscape:connector-curvature="0"/>
    </clipPath>
    <clipPath id="clipPath50">
      <path id="path52" d="m129.05 66.423c-1.359 1.708-4.399 2.918-9.121 3.641-3.039 0.453-6.746 0.586-11.117 0.399-4.989-0.348-8.696-0.575-11.121-0.68-3.333-0.16-8.868-0.586-16.602-1.281-7.145-0.641-12.691-1.028-16.641-1.161-1.25-0.05-3.023-0.039-5.316 0.04-2.43 0.054-4.188 0.066-5.281 0.042-1.735-0.109-3.028-0.175-3.879-0.199-1.469-0.027-2.723 0.039-3.762 0.199-0.934 0.161-1.879 0.438-2.84 0.84-1.359 0.614-2.508 1.012-3.441 1.2-0.985 0.187-2.227 0.265-3.719 0.238-6.03 0.242-10.909 0.226-14.644-0.039-6.961-0.504-11.16-2.199-12.597-5.078-0.508-1.016-0.657-2.227-0.442-3.641 0.133-0.879 0.453-2.039 0.961-3.48 0.184-0.508 0.774-2.399 1.758-5.68 0.75-2.508 1.695-4.945 2.84-7.32 1.68-3.465 3.922-6.934 6.723-10.399 2.933-3.574 5.32-5.707 7.16-6.402 0.636 0.187 0.465 1.402-0.524 3.64-1.199 2.746-1.73 4.625-1.597 5.641 0.851-0.133 1.707-0.855 2.558-2.16 0.481-0.719 1.082-1.774 1.801-3.16 0.773-1.227 1.988-3.465 3.641-6.719 1.625-2.906 3.16-4.867 4.597-5.883 0.457-0.32 1.364-0.73 2.723-1.238 1.254-0.508 2.172-1 2.758-1.481 1.601-1.359 3.203-3.785 4.801-7.281 1.839-4 3.253-6.598 4.242-7.797 1.172-1.468 2.84-1.617 5-0.441 1.226 0.64 2.89 1.707 5 3.199 0.879 0.426 1.652 0.641 2.32 0.641 0.426-0.028 1.145-0.055 2.156-0.082 1.387 0.109 2.778 0.48 4.16 1.121 0.055 0.027 1.321 0.707 3.801 2.039 1.067 0.562 1.973 0.828 2.723 0.801 0.504-0.028 1.437-0.133 2.797-0.321 0.883-0.05 1.883 0.188 3 0.723 0.64 0.32 1.574 0.824 2.801 1.519 3.945 2 7.199 4.426 9.761 7.278 0.614 0.695 1.891 2.414 3.84 5.16 1.547 2.16 2.945 3.773 4.199 4.84 0.828 0.695 2 1.242 3.52 1.64 1.68 0.454 2.867 0.907 3.558 1.36 0.883 0.562 1.817 1.469 2.801 2.722 0.563 0.719 1.36 1.813 2.403 3.278 3.839 4.933 6.226 8.066 7.16 9.402 2.558 3.758 4.332 7.254 5.32 10.481 1.383 4.613 1.305 7.89-0.242 9.839z" inkscape:connector-curvature="0"/>
    </clipPath>
    <clipPath id="clipPath58">
      <path id="path60" d="m0 0h135v98h-135v-98z" inkscape:connector-curvature="0"/>
    </clipPath>
    <clipPath id="clipPath62">
      <path id="path64" d="m7 0h124v64h-124v-64z" inkscape:connector-curvature="0"/>
    </clipPath>
    <clipPath id="clipPath66">
      <path id="path68" d="m7 0h124v64h-124v-64z" inkscape:connector-curvature="0"/>
    </clipPath>
    <mask id="mask70">
      <g id="g72">
        <g id="g74" clip-path="url(#clipPath62)">
          <g id="g76">
            <g id="g80">
              <g id="g82" clip-path="url(#clipPath66)">
                <g id="g84">
                  <path id="path86" style="fill-rule:evenodd;fill:#201312" d="m129.77 58.039c-1.36-2.371-2.067-3.652-2.118-3.84-0.453-0.293-1.043-0.918-1.761-1.879-0.692-0.879-1.293-1.441-1.801-1.679 0.16 0.691 0.309 1.199 0.441 1.519-0.64-0.828-1.015-1.308-1.121-1.441-0.367-0.547-0.636-1.067-0.82-1.559 0.07 0.203 0.117 0.453 0.141 0.758l0.082 0.801c-1.309-1.36-2.254-2.547-2.84-3.559 0.664 1.492 0.906 2.84 0.719 4.039-0.293-0.531-0.895-1.867-1.801-4 0.105 0.375 0.082 1-0.078 1.879-0.055-0.105-0.188-0.371-0.403-0.797-0.16-0.347-0.254-0.601-0.277-0.761-0.109 0.48-0.16 0.828-0.16 1.039-0.375-0.825-0.922-2.184-1.641-4.079 0 0.266-0.027 0.454-0.082 0.559-0.105-0.238-0.277-0.504-0.519-0.801l-0.641-0.636c0.027 0.16 0.027 0.41 0 0.757-0.051 0.348-0.066 0.586-0.039 0.719-0.32-0.16-0.652-0.543-1-1.16-0.426-0.77-0.735-1.266-0.918-1.477-1.043-1.121-1.774-1.921-2.203-2.402-0.692-0.801-1.321-1.68-1.879-2.641-0.774-1.359-1.453-2.386-2.039-3.078-0.934-1.148-1.906-1.84-2.922-2.082 0.16 0.989 0.586 2.387 1.281 4.203 0.453 0.879 0.785 1.614 1 2.2 0.399 1.093 0.36 1.734-0.121 1.918-0.641 0.242-1.437-0.332-2.398-1.719-0.934-1.602-1.52-2.547-1.762-2.84-0.348-0.48-1.414-1.746-3.199-3.801-1.332-1.547-2.254-2.918-2.758-4.121-0.375-0.957-0.762-2.25-1.16-3.879-0.43-1.387-1.082-2.547-1.961-3.48-0.457-0.481-1.539-1.399-3.246-2.758-1.411-1.121-2.399-2.094-2.957-2.922-1.497-2.398-2.52-4.547-3.082-6.437-0.559-2.055-1.028-3.629-1.399-4.723-0.586-1.734-1.242-3.227-1.961-4.481-0.48 0.454-1.055 1.309-1.719 2.563-0.64 1.25-0.988 2.184-1.043 2.801-0.05 0.718 0.243 1.812 0.883 3.277 0.774 1.602 1.25 2.695 1.438 3.281 0.297 0.852 0.894 1.868 1.801 3.039 0.961 1.254 1.574 2.2 1.839 2.84 0.243 0.586 0.496 1.414 0.762 2.481 0.293 1.199 0.504 2.066 0.641 2.601 0.371 1.254 0.664 2.266 0.879 3.039 0.297 1.231 0.394 2.129 0.3 2.7 0.161-1.18-1.207-3.094-4.101-5.739-3.52-3.254-5.399-5.203-5.641-5.84-0.105-0.269-0.238-0.867-0.398-1.8-0.106-0.508-0.375-1.016-0.801-1.52-0.32-0.402-0.961-0.883-1.918-1.441-1.016-0.586-1.684-1.055-2-1.399-0.109 2.211 0.238 4.438 1.039 6.68 0.399 1.066 1.344 3.133 2.84 6.199 1.012 1.785 1.691 3.106 2.039 3.961 0.613 1.387 0.879 2.824 0.801 4.32-1.867-1.496-3.281-2.64-4.242-3.441-1.731-1.441-2.879-2.801-3.438-4.082-0.508-1.145-1.055-2.703-1.64-4.68-0.829-2.906-1.293-4.504-1.399-4.797-0.48-1.441-1.176-3.175-2.082-5.203-0.508-1.117-1.281-2.797-2.32-5.039-0.399-0.933-0.961-2.293-1.68-4.078-0.773-1.387-1.867-2.242-3.281-2.562 0.16 0.828 0.453 1.734 0.883 2.722 0.503 1.145 0.879 2.024 1.117 2.637 0.535 1.23 1.469 3.707 2.801 7.441 0.242 0.668 0.496 1.586 0.761 2.762 0.293 1.332 0.52 2.266 0.68 2.797 0.586 1.684 1.012 2.977 1.277 3.883 0.481 1.597 0.668 2.933 0.563 4-0.696-0.453-1.293-1.481-1.801-3.082-0.293-0.879-0.641-2.094-1.039-3.641-0.215-0.691-0.723-2.519-1.52-5.476-0.855-2.696-1.707-4.204-2.562-4.524 0.16 2.082 0.269 3.641 0.32 4.684 0.082 1.812 0.016 3.371-0.199 4.679-0.215 1.278-0.148 2.957 0.199 5.039 0.481 3.012 0.735 4.692 0.762 5.04 0.105 1.281-0.106 2.761-0.641 4.441-0.828 2.504-1.281 3.918-1.359 4.238-0.242 1.52-0.496 2.762-0.762 3.719-0.453 1.789-1.066 2.801-1.84 3.043-0.664 0.238-1.425-0.188-2.277-1.281-0.109-0.133-0.601-0.934-1.48-2.399-1.043-1.707-1.657-3.109-1.84-4.203-0.188-1.039-0.094-2.598 0.277-4.68 0.16-1.011 0.52-2.57 1.082-4.679 0.531-2 0.879-3.547 1.039-4.641 0.188-1.172 0.559-3.012 1.121-5.519 0.453-2.266 0.547-4.118 0.278-5.559-0.239-1.465-0.371-2.227-0.399-2.281-0.105-0.801-0.121-1.571-0.039-2.321 0.051-0.48 0.184-1.277 0.399-2.398 0.082-0.988-0.122-1.734-0.598-2.238-0.082 0.426-0.27 0.984-0.563 1.679-0.343 0.747-0.558 1.293-0.64 1.637-0.586 2.137-0.934 3.32-1.039 3.563-0.215 0.586-0.321 1.211-0.321 1.879 0 1.093-0.011 1.734-0.039 1.921-0.132 1.543-0.773 3.344-1.922 5.399-1.382 2.238-2.382 3.879-3 4.922-0.558 0.984-1.851 4.05-3.878 9.199-1.493 3.867-3.188 6.664-5.079 8.398-0.054-0.851 0.024-1.851 0.239-3 0.187-1.148 0.453-2.054 0.801-2.718-0.747 0.746-1.922 2.332-3.52 4.757-1.359 2.082-2.629 3.547-3.801 4.403l-0.121-0.961c-0.398 0.215-0.879 0.519-1.437 0.922-0.801 0.613-1.243 0.945-1.321 1-0.054-0.188-0.082-0.481-0.082-0.883-0.773 0.027-1.597 0.348-2.48 0.961-0.985 0.801-1.719 1.387-2.199 1.762 0-0.696 0.175-1.829 0.519-3.403 0.293-1.437 0.414-2.597 0.359-3.48-4.558 5.199-6.89 7.855-7 7.961-0.957-0.348-1.933 0.172-2.917 1.558-0.989 1.707-1.68 2.817-2.083 3.321-0.238 0.32-1 1.148-2.277 2.48-0.933 0.988-1.601 1.895-2 2.723l6.117-0.563c4.243-0.371 6.602-0.613 7.082-0.719 1.547-0.347 3.868-0.894 6.961-1.64 2.719-0.641 5.051-1.067 7-1.281 2.985-0.321 7.344 0 13.078 0.961 5.84 0.96 10.227 1.32 13.161 1.082 1.519-0.11 3.507-0.575 5.961-1.403 2.718-0.906 4.679-1.453 5.878-1.64 2.133-0.321 4.961 0 8.481 0.961 5.176 1.414 7.988 2.16 8.441 2.242 5.387 0.933 8.465 1.476 9.239 1.636 3.519 0.641 6.585 1.297 9.199 1.961l1.121 0.321c1.015 0.32 2.465 0.906 4.359 1.761 1.973 0.852 3.426 1.438 4.36 1.758 4.027 1.309 6.109 1.973 6.242 2 2.906 0.613 4.879 0.227 5.918-1.16 0.801-1.066 0.746-2.398-0.16-4z" inkscape:connector-curvature="0"/>
                </g>
              </g>
            </g>
          </g>
        </g>
      </g>
    </mask>
    <clipPath id="clipPath88">
      <path id="path90" d="m7 0h124v64h-124v-64z" inkscape:connector-curvature="0"/>
    </clipPath>
    <clipPath id="clipPath92">
      <path id="path94" d="m7 0h124v64h-124v-64z" inkscape:connector-curvature="0"/>
    </clipPath>
    <clipPath id="clipPath96">
      <path id="path98" d="m8 0h120v61h-120v-61z" inkscape:connector-curvature="0"/>
    </clipPath>
    <clipPath id="clipPath100">
      <path id="path102" d="m8 0h120v61h-120v-61z" inkscape:connector-curvature="0"/>
    </clipPath>
    <mask id="mask104">
      <g id="g106">
        <g id="g108" clip-path="url(#clipPath96)">
          <g id="g110">
            <g id="g114">
              <g id="g116" clip-path="url(#clipPath100)">
                <g id="g118">
                  <path id="path120" style="fill-rule:evenodd;fill:#8a8382" d="m122.73 41.922c-0.692-1.336-1.641-2.629-2.84-3.883-0.051-0.078-1.199-1.199-3.442-3.359-1.492-1.547-2.613-2.692-3.359-3.442-1.305-1.304-2.57-2.25-3.797-2.84-1.601-0.773-2.816-2.039-3.641-3.796-0.773-2.161-1.48-3.801-2.121-4.922-0.8-1.414-2.425-2.84-4.879-4.282-0.245-0.16-2.217-1.183-5.924-3.078-4.426-2.265-8.774-4.172-13.039-5.718-1.708-0.59-3.786-1.149-6.243-1.68-2.824-0.563-4.957-0.988-6.398-1.281-0.535-0.106-2.707-0.989-6.52-2.641-2.8-1.199-5.027-1.586-6.679-1.16-2.614 0.668-4.387 2.625-5.321 5.879-0.425 1.867-0.761 3.254-1 4.16-0.425 1.629-0.949 2.894-1.558 3.801-0.535 0.8-1.309 1.508-2.321 2.121-0.535 0.293-1.48 0.734-2.839 1.32-0.11 0.051-0.907 0.293-2.403 0.719-1.066 0.32-1.801 0.668-2.199 1.039-1.172 1.043-2.508 3.32-4 6.84-1.387 3.281-2.879 5.441-4.48 6.48-0.028-0.64 0.16-1.492 0.558-2.558 0.43-1.227 0.668-2.067 0.723-2.52l-0.121-0.121c-2.879 1.84-4.918 3.199-6.121 4.078-2.344 1.762-4.133 3.414-5.36 4.961-3.226 4.055-5.961 9.707-8.199 16.961-0.719 2.426-1.105 5.055-1.16 7.879 2.855-9.598 7.773-18.344 14.762-26.238 1.519-1.735 2.851-2.868 4-3.403-0.11 0.668-0.309 1.574-0.602 2.723-0.32 1.227-0.535 2.105-0.641 2.641-0.105 0.476-0.187 1.386-0.238 2.718-0.055 1.149-0.187 2.028-0.402 2.641 0.535-0.266 1.015-0.828 1.441-1.68 0.266-0.48 0.613-1.187 1.039-2.121 0.375-0.613 0.867-1.32 1.481-2.121 0.347-0.453 0.879-1.133 1.601-2.039 0.719-0.906 1.453-2.188 2.2-3.84 1.093-2.426 1.707-3.773 1.839-4.039 0.641-1.226 1.493-2.199 2.559-2.922 0.266-0.187 1.414-0.785 3.441-1.801 0.614-0.32 1.547-0.906 2.801-1.757-0.055 0.773-0.48 1.894-1.281 3.359-1.012 1.812-1.602 2.922-1.762 3.32 0.856-0.453 1.723-1.375 2.602-2.761 0.48-0.797 1.133-1.946 1.961-3.438 0.398-0.641 1.32-1.84 2.757-3.601 1.227-1.493 2.083-2.758 2.563-3.801 0.105-0.239 0.414-1.571 0.918-4 0.348-1.731 0.976-2.852 1.883-3.36-0.082 1.442-0.137 2.536-0.16 3.282-0.055 1.355 0.16 2.367 0.636 3.039-0.261-0.387-0.25-1.641 0.043-3.758 0.266-2.137 0.586-3.375 0.957-3.723 0.883-0.824 2.469-0.492 4.762 1 2.773 1.84 4.441 2.789 5 2.84 0.348-1.066 1.238-1.574 2.68-1.519 1.199 0.027 2.293 0.359 3.281 1 0.32 0.214 0.719 0.613 1.199 1.199 0.481 0.613 0.867 1.027 1.16 1.242 0.453 0.32 0.895 0.465 1.321 0.437 0.613 0 1.054 0.043 1.32 0.122 0.984 0.292 1.652 0.519 2 0.679 0.746 0.321 1.277 0.668 1.598 1.039 0.347 0.375 0.734 1.188 1.16 2.442 0.375 1.093 0.867 1.855 1.48 2.281 0-0.508-0.332-1.613-1-3.32-0.453-1.547-0.238-2.43 0.641-2.641 0.746-0.188 1.734 0.359 2.961 1.641 1.465 1.519 2.414 2.347 2.84 2.48 0.265 0.078 0.707 0.133 1.32 0.16 0.531 0 0.973 0.094 1.32 0.278 0.426 0.214 1.184 0.8 2.278 1.761 0.828 0.668 1.562 1.442 2.203 2.321 0.558 0.746 1.254 1.879 2.078 3.398 0.801 1.496 1.508 2.508 2.121 3.039-0.106-1.223-0.922-3.156-2.441-5.797 0.613 0.211 1.242 0.774 1.878 1.68 0.348 0.504 0.84 1.227 1.481 2.16 0.668 0.824 1.773 2.094 3.32 3.801 0.481 0.558 1.266 1.293 2.36 2.199 1.066 0.906 1.839 1.652 2.32 2.238 0.055 0.082 0.68 1.039 1.883 2.879 0.879 1.364 1.597 2.11 2.16 2.242-0.856-1.175-1.524-2.105-2-2.8-0.906-1.305-1.309-2.321-1.203-3.039 0.375-0.106 0.801-0.055 1.281 0.16 0.238 0.105 0.625 0.332 1.16 0.679 1.602 1.012 2.856 2.055 3.762 3.122 0.344 0.398 0.73 1.078 1.16 2.039 0.426 0.961 0.824 1.64 1.199 2.039-0.375-0.907-0.601-1.575-0.679-2 0.371 0.293 0.785 0.828 1.238 1.601 0.558 0.934 0.922 1.504 1.082 1.719l5.117 6.398c2.055 2.481 3.52 4.524 4.402 6.122-0.054-1.813-0.656-3.825-1.8-6.04-1.442-2.453-2.481-4.308-3.121-5.558z" inkscape:connector-curvature="0"/>
                </g>
              </g>
            </g>
          </g>
        </g>
      </g>
    </mask>
    <clipPath id="clipPath122">
      <path id="path124" d="m8 0h120v61h-120v-61z" inkscape:connector-curvature="0"/>
    </clipPath>
    <clipPath id="clipPath126">
      <path id="path128" d="m8 0h120v61h-120v-61z" inkscape:connector-curvature="0"/>
    </clipPath>
    <linearGradient id="linearGradient196" y2="84.462" gradientUnits="userSpaceOnUse" x2="10.528" gradientTransform="matrix(.01208 .79992 .79992 -.01208 .0075692 97.302)" y1="84.462" x1="-70.481">
      <stop id="stop198" style="stop-color:#7573a8" offset="0"/>
      <stop id="stop200" style="stop-color:#a6dfc9" offset="1"/>
    </linearGradient>
    <linearGradient id="linearGradient216" y2="43.026" gradientUnits="userSpaceOnUse" x2="-26.308" gradientTransform="matrix(-.22768 .76688 .76688 .22768 .007473 97.302)" y1="43.026" x1="-41.59">
      <stop id="stop218" style="stop-color:#7573a8" offset="0"/>
      <stop id="stop220" style="stop-color:#a6dfc9" offset="1"/>
    </linearGradient>
    <linearGradient id="linearGradient248" y2="112.83" gradientUnits="userSpaceOnUse" x2="37.071" gradientTransform="matrix(.2844 .74776 .74776 -.2844 .0071804 97.302)" y1="112.83" x1="12.597">
      <stop id="stop250" style="stop-color:#7573a8" offset="0"/>
      <stop id="stop252" style="stop-color:#a6dfc9" offset="1"/>
    </linearGradient>
    <clipPath id="clipPath272">
      <path id="path274" d="m8 47.302h121v25h-121v-25z" inkscape:connector-curvature="0"/>
    </clipPath>
    <mask id="mask276">
      <g id="g278">
        <g id="g280" clip-path="url(#clipPath272)">
          <path id="path282" style="fill:#000000;fill-opacity:.57030" d="m8 47.302h121v25h-121v-25z" inkscape:connector-curvature="0"/>
        </g>
      </g>
    </mask>
    <clipPath id="clipPath288">
      <path id="path290" d="m8 47.302h121v25h-121v-25z" inkscape:connector-curvature="0"/>
    </clipPath>
    <clipPath id="clipPath292">
      <path id="path294" d="m8 48h121v25h-121v-25z" inkscape:connector-curvature="0"/>
    </clipPath>
    <linearGradient id="linearGradient398" y2="58.408" gradientUnits="userSpaceOnUse" x2="-3.9619" gradientTransform="matrix(-.10088 .7936 .7936 .10088 .0073357 97.303)" y1="58.408" x1="-34.884">
      <stop id="stop400" style="stop-color:#7573a8" offset="0"/>
      <stop id="stop402" style="stop-color:#a6dfc9" offset="1"/>
    </linearGradient>
  </defs>
  <g id="g10" transform="matrix(1.25 0 0 -1.25 0 121.63)">
    <g id="g12">
      <g id="g14">
        <g id="g16">
          <g id="g22">
            <path id="path38" style="fill-rule:evenodd;fill:url(#linearGradient24)" d="m129.05 66.423c1.547-1.949 1.625-5.226 0.242-9.839-0.988-3.227-2.762-6.723-5.32-10.481-0.934-1.336-3.321-4.469-7.16-9.402-1.039-1.465-1.84-2.559-2.403-3.278-0.984-1.253-1.918-2.16-2.797-2.722-0.695-0.453-1.882-0.906-3.562-1.36-1.52-0.398-2.692-0.945-3.52-1.64-1.254-1.067-2.652-2.68-4.199-4.84-1.945-2.746-3.226-4.465-3.84-5.16-2.561-2.852-5.815-5.278-9.761-7.278-1.23-0.695-2.16-1.199-2.8-1.519-1.121-0.535-2.121-0.773-3-0.723-1.36 0.188-2.293 0.293-2.801 0.321-0.746 0.027-1.652-0.239-2.719-0.801-2.48-1.332-3.75-2.012-3.801-2.039-1.386-0.641-2.773-1.012-4.16-1.121-1.015 0.027-1.734 0.054-2.16 0.082-0.668 0-1.441-0.215-2.32-0.641-2.106-1.492-3.774-2.559-5-3.199-2.16-1.172-3.828-1.027-5 0.441-0.985 1.199-2.399 3.801-4.239 7.801-1.601 3.492-3.203 5.918-4.8 7.277-0.586 0.481-1.508 0.973-2.762 1.481-1.359 0.508-2.266 0.922-2.719 1.242-1.441 1.012-2.972 2.973-4.601 5.879-1.653 3.254-2.864 5.492-3.641 6.719-0.719 1.386-1.316 2.441-1.797 3.16-0.855 1.308-1.707 2.027-2.562 2.16-0.133-1.012 0.402-2.895 1.601-5.641 0.985-2.238 1.16-3.453 0.52-3.64-1.84 0.695-4.227 2.828-7.16 6.402-2.801 3.465-5.039 6.934-6.719 10.399-1.149 2.375-2.094 4.812-2.84 7.32-0.988 3.281-1.574 5.176-1.762 5.68-0.504 1.441-0.824 2.601-0.961 3.48-0.211 1.414-0.066 2.629 0.442 3.641 1.441 2.879 5.64 4.574 12.601 5.078 3.731 0.269 8.614 0.281 14.637 0.043 1.496 0.023 2.734-0.055 3.723-0.242 0.933-0.188 2.078-0.586 3.437-1.2 0.961-0.398 1.906-0.679 2.84-0.84 1.043-0.16 2.297-0.226 3.762-0.199 0.851 0.024 2.148 0.094 3.879 0.199 1.093 0.028 2.855 0.012 5.281-0.039 2.293-0.082 4.066-0.093 5.32-0.043 3.946 0.137 9.492 0.524 16.641 1.161 7.734 0.695 13.265 1.121 16.598 1.281 2.429 0.105 6.136 0.332 11.121 0.68 4.375 0.187 8.082 0.054 11.121-0.399 4.718-0.723 7.758-1.933 9.117-3.641z" inkscape:connector-curvature="0"/>
          </g>
        </g>
      </g>
    </g>
    <g id="g40">
      <g id="g42" clip-path="url(#clipPath44)">
        <g id="g48" clip-path="url(#clipPath50)">
          <g id="g54" transform="translate(0 -.69760)">
            <g id="g130">
              <g id="g132" clip-path="url(#clipPath58)">
                <g id="g134">
                  <g id="g136">
                    <g id="g140" mask="url(#mask70)">
                      <g id="g144">
                        <g id="g146" clip-path="url(#clipPath88)">
                          <g id="g148">
                            <g id="g152">
                              <g id="g154" clip-path="url(#clipPath92)">
                                <g id="g156">
                                  <path id="path158" style="fill-rule:evenodd;fill:#201312" d="m129.77 58.039c-1.36-2.371-2.067-3.652-2.118-3.84-0.453-0.293-1.043-0.918-1.761-1.879-0.692-0.879-1.293-1.441-1.801-1.679 0.16 0.691 0.309 1.199 0.441 1.519-0.64-0.828-1.015-1.308-1.121-1.441-0.367-0.547-0.636-1.067-0.82-1.559 0.07 0.203 0.117 0.453 0.141 0.758l0.082 0.801c-1.309-1.36-2.254-2.547-2.84-3.559 0.664 1.492 0.906 2.84 0.719 4.039-0.293-0.531-0.895-1.867-1.801-4 0.105 0.375 0.082 1-0.078 1.879-0.055-0.105-0.188-0.371-0.403-0.797-0.16-0.347-0.254-0.601-0.277-0.761-0.109 0.48-0.16 0.828-0.16 1.039-0.375-0.825-0.922-2.184-1.641-4.079 0 0.266-0.027 0.454-0.082 0.559-0.105-0.238-0.277-0.504-0.519-0.801l-0.641-0.636c0.027 0.16 0.027 0.41 0 0.757-0.051 0.348-0.066 0.586-0.039 0.719-0.32-0.16-0.652-0.543-1-1.16-0.426-0.77-0.735-1.266-0.918-1.477-1.043-1.121-1.774-1.921-2.203-2.402-0.692-0.801-1.321-1.68-1.879-2.641-0.774-1.359-1.453-2.386-2.039-3.078-0.934-1.148-1.906-1.84-2.922-2.082 0.16 0.989 0.586 2.387 1.281 4.203 0.453 0.879 0.785 1.614 1 2.2 0.399 1.093 0.36 1.734-0.121 1.918-0.641 0.242-1.437-0.332-2.398-1.719-0.934-1.602-1.52-2.547-1.762-2.84-0.348-0.48-1.414-1.746-3.199-3.801-1.332-1.547-2.254-2.918-2.758-4.121-0.375-0.957-0.762-2.25-1.16-3.879-0.43-1.387-1.082-2.547-1.961-3.48-0.457-0.481-1.539-1.399-3.246-2.758-1.411-1.121-2.399-2.094-2.957-2.922-1.497-2.398-2.52-4.547-3.082-6.437-0.559-2.055-1.028-3.629-1.399-4.723-0.586-1.734-1.242-3.227-1.961-4.481-0.48 0.454-1.055 1.309-1.719 2.563-0.64 1.25-0.988 2.184-1.043 2.801-0.05 0.718 0.243 1.812 0.883 3.277 0.774 1.602 1.25 2.695 1.438 3.281 0.297 0.852 0.894 1.868 1.801 3.039 0.961 1.254 1.574 2.2 1.839 2.84 0.243 0.586 0.496 1.414 0.762 2.481 0.293 1.199 0.504 2.066 0.641 2.601 0.371 1.254 0.664 2.266 0.879 3.039 0.297 1.231 0.394 2.129 0.3 2.7 0.161-1.18-1.207-3.094-4.101-5.739-3.52-3.254-5.399-5.203-5.641-5.84-0.105-0.269-0.238-0.867-0.398-1.8-0.106-0.508-0.375-1.016-0.801-1.52-0.32-0.402-0.961-0.883-1.918-1.441-1.016-0.586-1.684-1.055-2-1.399-0.109 2.211 0.238 4.438 1.039 6.68 0.399 1.066 1.344 3.133 2.84 6.199 1.012 1.785 1.691 3.106 2.039 3.961 0.613 1.387 0.879 2.824 0.801 4.32-1.867-1.496-3.281-2.64-4.242-3.441-1.731-1.441-2.879-2.801-3.438-4.082-0.508-1.145-1.055-2.703-1.64-4.68-0.829-2.906-1.293-4.504-1.399-4.797-0.48-1.441-1.176-3.175-2.082-5.203-0.508-1.117-1.281-2.797-2.32-5.039-0.399-0.933-0.961-2.293-1.68-4.078-0.773-1.387-1.867-2.242-3.281-2.562 0.16 0.828 0.453 1.734 0.883 2.722 0.503 1.145 0.879 2.024 1.117 2.637 0.535 1.23 1.469 3.707 2.801 7.441 0.242 0.668 0.496 1.586 0.761 2.762 0.293 1.332 0.52 2.266 0.68 2.797 0.586 1.684 1.012 2.977 1.277 3.883 0.481 1.597 0.668 2.933 0.563 4-0.696-0.453-1.293-1.481-1.801-3.082-0.293-0.879-0.641-2.094-1.039-3.641-0.215-0.691-0.723-2.519-1.52-5.476-0.855-2.696-1.707-4.204-2.562-4.524 0.16 2.082 0.269 3.641 0.32 4.684 0.082 1.812 0.016 3.371-0.199 4.679-0.215 1.278-0.148 2.957 0.199 5.039 0.481 3.012 0.735 4.692 0.762 5.04 0.105 1.281-0.106 2.761-0.641 4.441-0.828 2.504-1.281 3.918-1.359 4.238-0.242 1.52-0.496 2.762-0.762 3.719-0.453 1.789-1.066 2.801-1.84 3.043-0.664 0.238-1.425-0.188-2.277-1.281-0.109-0.133-0.601-0.934-1.48-2.399-1.043-1.707-1.657-3.109-1.84-4.203-0.188-1.039-0.094-2.598 0.277-4.68 0.16-1.011 0.52-2.57 1.082-4.679 0.531-2 0.879-3.547 1.039-4.641 0.188-1.172 0.559-3.012 1.121-5.519 0.453-2.266 0.547-4.118 0.278-5.559-0.239-1.465-0.371-2.227-0.399-2.281-0.105-0.801-0.121-1.571-0.039-2.321 0.051-0.48 0.184-1.277 0.399-2.398 0.082-0.988-0.122-1.734-0.598-2.238-0.082 0.426-0.27 0.984-0.563 1.679-0.343 0.747-0.558 1.293-0.64 1.637-0.586 2.137-0.934 3.32-1.039 3.563-0.215 0.586-0.321 1.211-0.321 1.879 0 1.093-0.011 1.734-0.039 1.921-0.132 1.543-0.773 3.344-1.922 5.399-1.382 2.238-2.382 3.879-3 4.922-0.558 0.984-1.851 4.05-3.878 9.199-1.493 3.867-3.188 6.664-5.079 8.398-0.054-0.851 0.024-1.851 0.239-3 0.187-1.148 0.453-2.054 0.801-2.718-0.747 0.746-1.922 2.332-3.52 4.757-1.359 2.082-2.629 3.547-3.801 4.403l-0.121-0.961c-0.398 0.215-0.879 0.519-1.437 0.922-0.801 0.613-1.243 0.945-1.321 1-0.054-0.188-0.082-0.481-0.082-0.883-0.773 0.027-1.597 0.348-2.48 0.961-0.985 0.801-1.719 1.387-2.199 1.762 0-0.696 0.175-1.829 0.519-3.403 0.293-1.437 0.414-2.597 0.359-3.48-4.558 5.199-6.89 7.855-7 7.961-0.957-0.348-1.933 0.172-2.917 1.558-0.989 1.707-1.68 2.817-2.083 3.321-0.238 0.32-1 1.148-2.277 2.48-0.933 0.988-1.601 1.895-2 2.723l6.117-0.563c4.243-0.371 6.602-0.613 7.082-0.719 1.547-0.347 3.868-0.894 6.961-1.64 2.719-0.641 5.051-1.067 7-1.281 2.985-0.321 7.344 0 13.078 0.961 5.84 0.96 10.227 1.32 13.161 1.082 1.519-0.11 3.507-0.575 5.961-1.403 2.718-0.906 4.679-1.453 5.878-1.64 2.133-0.321 4.961 0 8.481 0.961 5.176 1.414 7.988 2.16 8.441 2.242 5.387 0.933 8.465 1.476 9.239 1.636 3.519 0.641 6.585 1.297 9.199 1.961l1.121 0.321c1.015 0.32 2.465 0.906 4.359 1.761 1.973 0.852 3.426 1.438 4.36 1.758 4.027 1.309 6.109 1.973 6.242 2 2.906 0.613 4.879 0.227 5.918-1.16 0.801-1.066 0.746-2.398-0.16-4z" inkscape:connector-curvature="0"/>
                                </g>
                              </g>
                            </g>
                          </g>
                        </g>
                      </g>
                    </g>
                  </g>
                  <g id="g160">
                    <g id="g164" mask="url(#mask104)">
                      <g id="g168">
                        <g id="g170" clip-path="url(#clipPath122)">
                          <g id="g172">
                            <g id="g176">
                              <g id="g178" clip-path="url(#clipPath126)">
                                <g id="g180">
                                  <path id="path182" style="fill-rule:evenodd;fill:#8a8382" d="m122.73 41.922c-0.692-1.336-1.641-2.629-2.84-3.883-0.051-0.078-1.199-1.199-3.442-3.359-1.492-1.547-2.613-2.692-3.359-3.442-1.305-1.304-2.57-2.25-3.797-2.84-1.601-0.773-2.816-2.039-3.641-3.796-0.773-2.161-1.48-3.801-2.121-4.922-0.8-1.414-2.425-2.84-4.879-4.282-0.245-0.16-2.217-1.183-5.924-3.078-4.426-2.265-8.774-4.172-13.039-5.718-1.708-0.59-3.786-1.149-6.243-1.68-2.824-0.563-4.957-0.988-6.398-1.281-0.535-0.106-2.707-0.989-6.52-2.641-2.8-1.199-5.027-1.586-6.679-1.16-2.614 0.668-4.387 2.625-5.321 5.879-0.425 1.867-0.761 3.254-1 4.16-0.425 1.629-0.949 2.894-1.558 3.801-0.535 0.8-1.309 1.508-2.321 2.121-0.535 0.293-1.48 0.734-2.839 1.32-0.11 0.051-0.907 0.293-2.403 0.719-1.066 0.32-1.801 0.668-2.199 1.039-1.172 1.043-2.508 3.32-4 6.84-1.387 3.281-2.879 5.441-4.48 6.48-0.028-0.64 0.16-1.492 0.558-2.558 0.43-1.227 0.668-2.067 0.723-2.52l-0.121-0.121c-2.879 1.84-4.918 3.199-6.121 4.078-2.344 1.762-4.133 3.414-5.36 4.961-3.226 4.055-5.961 9.707-8.199 16.961-0.719 2.426-1.105 5.055-1.16 7.879 2.855-9.598 7.773-18.344 14.762-26.238 1.519-1.735 2.851-2.868 4-3.403-0.11 0.668-0.309 1.574-0.602 2.723-0.32 1.227-0.535 2.105-0.641 2.641-0.105 0.476-0.187 1.386-0.238 2.718-0.055 1.149-0.187 2.028-0.402 2.641 0.535-0.266 1.015-0.828 1.441-1.68 0.266-0.48 0.613-1.187 1.039-2.121 0.375-0.613 0.867-1.32 1.481-2.121 0.347-0.453 0.879-1.133 1.601-2.039 0.719-0.906 1.453-2.188 2.2-3.84 1.093-2.426 1.707-3.773 1.839-4.039 0.641-1.226 1.493-2.199 2.559-2.922 0.266-0.187 1.414-0.785 3.441-1.801 0.614-0.32 1.547-0.906 2.801-1.757-0.055 0.773-0.48 1.894-1.281 3.359-1.012 1.812-1.602 2.922-1.762 3.32 0.856-0.453 1.723-1.375 2.602-2.761 0.48-0.797 1.133-1.946 1.961-3.438 0.398-0.641 1.32-1.84 2.757-3.601 1.227-1.493 2.083-2.758 2.563-3.801 0.105-0.239 0.414-1.571 0.918-4 0.348-1.731 0.976-2.852 1.883-3.36-0.082 1.442-0.137 2.536-0.16 3.282-0.055 1.355 0.16 2.367 0.636 3.039-0.261-0.387-0.25-1.641 0.043-3.758 0.266-2.137 0.586-3.375 0.957-3.723 0.883-0.824 2.469-0.492 4.762 1 2.773 1.84 4.441 2.789 5 2.84 0.348-1.066 1.238-1.574 2.68-1.519 1.199 0.027 2.293 0.359 3.281 1 0.32 0.214 0.719 0.613 1.199 1.199 0.481 0.613 0.867 1.027 1.16 1.242 0.453 0.32 0.895 0.465 1.321 0.437 0.613 0 1.054 0.043 1.32 0.122 0.984 0.292 1.652 0.519 2 0.679 0.746 0.321 1.277 0.668 1.598 1.039 0.347 0.375 0.734 1.188 1.16 2.442 0.375 1.093 0.867 1.855 1.48 2.281 0-0.508-0.332-1.613-1-3.32-0.453-1.547-0.238-2.43 0.641-2.641 0.746-0.188 1.734 0.359 2.961 1.641 1.465 1.519 2.414 2.347 2.84 2.48 0.265 0.078 0.707 0.133 1.32 0.16 0.531 0 0.973 0.094 1.32 0.278 0.426 0.214 1.184 0.8 2.278 1.761 0.828 0.668 1.562 1.442 2.203 2.321 0.558 0.746 1.254 1.879 2.078 3.398 0.801 1.496 1.508 2.508 2.121 3.039-0.106-1.223-0.922-3.156-2.441-5.797 0.613 0.211 1.242 0.774 1.878 1.68 0.348 0.504 0.84 1.227 1.481 2.16 0.668 0.824 1.773 2.094 3.32 3.801 0.481 0.558 1.266 1.293 2.36 2.199 1.066 0.906 1.839 1.652 2.32 2.238 0.055 0.082 0.68 1.039 1.883 2.879 0.879 1.364 1.597 2.11 2.16 2.242-0.856-1.175-1.524-2.105-2-2.8-0.906-1.305-1.309-2.321-1.203-3.039 0.375-0.106 0.801-0.055 1.281 0.16 0.238 0.105 0.625 0.332 1.16 0.679 1.602 1.012 2.856 2.055 3.762 3.122 0.344 0.398 0.73 1.078 1.16 2.039 0.426 0.961 0.824 1.64 1.199 2.039-0.375-0.907-0.601-1.575-0.679-2 0.371 0.293 0.785 0.828 1.238 1.601 0.558 0.934 0.922 1.504 1.082 1.719l5.117 6.398c2.055 2.481 3.52 4.524 4.402 6.122-0.054-1.813-0.656-3.825-1.8-6.04-1.442-2.453-2.481-4.308-3.121-5.558z" inkscape:connector-curvature="0"/>
                                </g>
                              </g>
                            </g>
                          </g>
                        </g>
                      </g>
                    </g>
                  </g>
                </g>
              </g>
            </g>
          </g>
        </g>
      </g>
    </g>
    <g id="g184">
      <g id="g186">
        <g id="g188">
          <g id="g194">
            <path id="path202" style="fill-rule:evenodd;fill:url(#linearGradient196)" d="m132.49 63.982c1.442-2.746 1.879-5.641 1.321-8.68-0.11-0.558-1.016-3.425-2.723-8.601-0.211-0.637-0.586-1.426-1.117-2.36-0.586-1.023-0.981-1.769-1.18-2.238 0.602 1.488 0.941 3.141 1.02 4.961 0.05 0.785 0.015 2.266-0.102 4.438 0.039-1.504-0.5-3.278-1.621-5.321 0.055 1.36-0.227 3.2-0.84 5.52l-1-4.078c-0.426 1.734-0.691 2.773-0.797 3.121-0.347 1.199-0.777 2.144-1.281 2.84-0.695-1.094-1.293-2.426-1.801-4-0.695 0.023-1.281 0.464-1.762 1.32-0.238-0.906-0.707-2.242-1.398-4-0.719-1.84-1.187-3.121-1.398-3.84 0.16 2.449-0.481 4.703-1.922 6.758 0.16-0.481 0.254-1.215 0.281-2.199-0.215 0.238-0.559 0.547-1.039 0.918-0.508 0.375-0.856 0.656-1.043 0.84 0.48-1.383 0.656-3.04 0.519-4.958-0.613 1.465-1.597 2.735-2.957 3.801 0.161-0.562 0.321-1.402 0.481-2.523-0.109 0.242-0.309 0.629-0.602 1.16-0.347 0.586-0.574 1-0.679 1.242-0.215-1.68-1.332-3.707-3.36-6.082-2.933-3.465-4.468-5.305-4.601-5.519 0.293 1.336 0.801 2.812 1.519 4.441-0.812-0.629-1.824-1.902-3.039-3.82 0.641 1.066 0.961 2.621 0.961 4.66-1.683-0.774-3.402-2.535-5.16-5.281-0.48 1.441-0.453 2.722 0.078 3.839-1.359-1.304-2.25-2.414-2.68-3.316-0.507-1.07-0.851-2.656-1.039-4.762-0.293 0.934-0.468 2.067-0.519 3.399-0.055 2.586 0 4.336 0.16 5.242-1.016-1.121-1.867-1.723-2.563-1.801 0.028 0.375 0.067 0.641 0.122 0.801-0.559-0.535-1.305-0.949-2.239-1.242-0.187-0.051-1.015-0.239-2.48-0.559l0.637 2.801c-0.614-0.426-1.586-0.922-2.918-1.481-1.415-0.613-2.415-1.109-3-1.48 0.425 0.668 0.812 1.508 1.16 2.52 0.375 1.199 0.652 2.093 0.84 2.679-0.801-0.773-1.305-1.254-1.52-1.441-0.586-0.477-1.199-0.852-1.84-1.117-0.668-0.293-1.215-0.426-1.64-0.403-0.582 0.028-0.727 0.395-0.442 1.102-0.355-0.824-1.316-1.988-2.879-3.5 0.555 1.004 0.742 2.351 0.559 4.039 0.043-0.477-0.145-1.106-0.559-1.879-0.586-1.016-0.906-1.641-0.961-1.879-0.468-1.683-0.562-3.125-0.277-4.32-0.117 0.429-0.25 1.004-0.402 1.719-0.106 0.613-0.321 1.253-0.641 1.918-0.184 0.402-0.773 1.16-1.758 2.281-0.719 0.859-1.191 1.609-1.422 2.261 0.094-0.386 0.141-0.871 0.141-1.46-0.801 0.027-1.641 0.507-2.52 1.441-0.8 0.824-1.347 1.664-1.64 2.519 0.082-1.707 0.136-2.707 0.16-3-1.945 2.586-3.332 4.614-4.16 6.079 0.109-0.504 0.109-1.145 0-1.918-0.051-0.426-0.172-1.055-0.36-1.883-1.199 1.894-1.746 2.922-1.64 3.082-1.36-2.106-2.758-2.625-4.199-1.559 0-0.133-0.051-0.508-0.161-1.121-0.078-0.543-0.07-0.883 0.02-1.019-1.082 1.402-2.102 2.437-3.059 3.097 0-1.437-0.199-2.812-0.601-4.117-0.078 0.238-0.25 0.574-0.52 1-0.293 0.426-0.48 0.734-0.558 0.918-0.133-0.211-0.481-0.625-1.039-1.238-0.481-0.535-0.801-0.961-0.961-1.281 0.078 0.265 0.148 0.734 0.199 1.402 0.055 0.613 0.133 1.078 0.242 1.398-3.496-2.48-5.855-5.175-7.082-8.082-0.187 1.254-0.32 2.2-0.402 2.844-0.133 1.09-0.184 2.039-0.16 2.84-0.532-1.149-0.985-3.07-1.36-5.762-0.426 1.602-0.758 3.625-1 6.078-0.691-1.758-1.094-3.664-1.199-5.718-0.106-2.079 0.105-4.012 0.641-5.797-1.786 4.425-3.028 8.824-3.719 13.199-0.828-2.508-1.028-5.254-0.602-8.242-0.828 1.336-1.547 2.933-2.16 4.8-0.668 2.106-0.984 3.879-0.961 5.321-0.133-0.563-0.211-1.321-0.238-2.281 0-0.93 0.058-1.75 0.18-2.461-0.352 1.711-1.145 3.101-2.379 4.179-0.801 0.696-2.203 1.496-4.203 2.403 0.109-0.508 0.23-1.293 0.363-2.36-0.961 1.172-2.895 2.52-5.801 4.039 0.586-0.586 0.973-0.949 1.16-1.082-1.176 0.508-2.508 1.176-4 2 0.656-0.707 1.223-1.683 1.699-2.937-0.242 0.59-0.929 1.09-2.058 1.5-1.266 0.453-2.067 0.836-2.403 1.14 0.657-3.41 0.993-6.101 1-8.082-0.195 0.477-0.371 1.161-0.519 2.063-0.188 1.012-0.375 1.746-0.559 2.199-0.215 0.481-0.629 1.078-1.242 1.801-0.64 0.746-1.051 1.332-1.238 1.758 0.105-1.52 0.625-2.985 1.558-4.399-0.878 0.719-1.625 1.625-2.238 2.719-0.453 0.746-0.961 1.813-1.519 3.199-0.668 1.442-1.227 2.399-1.68 2.879-0.856 0.75-1.457 1.293-1.801 1.641-0.57 0.57-0.961 1.277-1.179 2.121 0.222-0.985 0.296-1.906 0.218-2.762-0.586 0.75-0.984 1.828-1.199 3.242-0.133-0.988 0.027-2.242 0.481-3.761-0.907 1.519-1.497 3.054-1.762 4.601-0.321 1.895-0.078 3.481 0.719 4.758-0.692-0.48-1.239-1.078-1.637-1.797-0.137 2.664 1.57 5.051 5.117 7.16 2.801 1.68 5.75 2.746 8.84 3.199-0.906-0.109-1.613-0.132-2.117-0.082 0.293 0.106 1.211 0.266 2.757 0.481l-0.558 0.48c0.558-0.027 1.414-0.054 2.558-0.078 1.016 0 1.856 0.067 2.52 0.199-0.746-0.054-1.371 0.227-1.879 0.84 0.426-0.48 1.281-0.562 2.559-0.242 0.695 0.16 1.574 0.442 2.64 0.84 1.469 0.43 3.84 0.922 7.121 1.48 0.133 0.028 2.067 0.282 5.801 0.762 2.293 0.293 4.227 0.735 5.801 1.32-0.59-0.425-1.043-0.906-1.363-1.441 0.32 0.508 1.48 0.801 3.48 0.879 1.067 0.027 2.375 0 3.922-0.078 2.266 0 5.574 0.492 9.918 1.48 4.32 0.985 7.602 1.481 9.84 1.481-0.774-0.028-1.559-0.203-2.36-0.52-0.878-0.347-1.558-0.789-2.039-1.32 1.414 0.398 2.989 0.437 4.719 0.117 2.774-0.504 4.293-0.773 4.559-0.797 2.054-0.109 5.121-0.441 9.203-1-0.535 0.559-1.16 1.157-1.883 1.797 1.84-0.984 2.961-1.574 3.363-1.758 1.278-0.586 2.493-0.933 3.637-1.039-0.258 0.805-0.465 1.321-0.617 1.539 0.687-0.922 1.785-1.515 3.297-1.781 0.933-0.133 2.254-0.16 3.961-0.078 4 0.16 7.133 0.023 9.402-0.402 1.332-0.266 2.25-0.332 2.758-0.2 0.879 0.188 1.601 0.856 2.16 2-0.266-0.64-0.598-1.625-1-2.961 0.293 0.321 0.773 0.735 1.441 1.243 0.719 0.586 1.211 1.011 1.481 1.277-0.188-0.211-0.414-0.586-0.68-1.117-0.32-0.586-0.535-0.961-0.64-1.121 1.812 0.48 3.132 0.785 3.957 0.918 1.496 0.297 2.867 0.414 4.121 0.363-1.309-0.906-2.309-1.535-3-1.883 1.933 0.637 4.082 0.918 6.441 0.84-0.445 0.004-1.078-0.328-1.902-1 0.847 0.648 2.441 0.582 4.781-0.199 1.84-0.586 3.375-1.281 4.602-2.078 1.492-0.934 2.812-2.176 3.957-3.723 0.668-0.879 1.695-2.254 3.082-4.117-0.559 0.051-0.985 0.133-1.278 0.238z" inkscape:connector-curvature="0"/>
          </g>
        </g>
      </g>
      <path id="path204" style="fill-rule:evenodd;fill:#5c5a98" d="m34.969 83.701c-0.028 0.457 0.078 0.867 0.32 1.242 0.266 0.371 0.613 0.586 1.039 0.641 0.426 0.05 0.801-0.055 1.121-0.321 0.344-0.265 0.547-0.629 0.598-1.082 0.055-0.453-0.051-0.867-0.32-1.238-0.266-0.375-0.614-0.586-1.039-0.641-0.426-0.054-0.813 0.055-1.161 0.321-0.32 0.293-0.507 0.652-0.558 1.078z" inkscape:connector-curvature="0"/>
      <g id="g206">
        <g id="g208">
          <g id="g214">
            <path id="path222" style="fill-rule:evenodd;fill:url(#linearGradient216)" d="m39.809 78.064 0.16-0.242c-0.188 0.988-0.403 1.773-0.641 2.359-0.402 1.016-1 1.828-1.801 2.442l0.121 0.359c0.774-0.375 1.454-1.039 2.04-2 0.453-0.773 0.773-1.601 0.96-2.48 0.692 1.629 1.707 2.414 3.04 2.359 0.695-0.027 1.304-0.211 1.839-0.559-1.812 0.719-3.011 0.188-3.601-1.601-0.293-0.879-0.399-1.84-0.321-2.879-0.585-0.266-1-0.414-1.238-0.441-0.16-0.024-0.398-0.012-0.719 0.042l-0.402 0.079c-0.023 1.972-0.437 3.105-1.238 3.402l-1.16-0.121c0.64 0.613 1.332 0.68 2.078 0.199 0.347-0.238 0.64-0.547 0.883-0.918z" inkscape:connector-curvature="0"/>
          </g>
        </g>
      </g>
      <path id="path224" style="fill-rule:evenodd;fill:#8483b2" d="m36.207 85.423 1.199 1.239c1.016 0.719 2.067 0.867 3.16 0.441-0.265-0.055-0.558-0.148-0.878-0.281-0.614-0.293-0.989-0.691-1.122-1.199-0.238-0.989-0.437-1.614-0.597-1.879-0.16-0.321-0.403-0.43-0.723-0.321-0.238 0.079-0.492 0.438-0.758 1.079l-0.281 0.921z" inkscape:connector-curvature="0"/>
      <path id="path226" style="fill-rule:evenodd;fill:#8483b2" d="m36.406 83.982c-0.293-0.375-0.625-0.508-1-0.398-0.344 0.105-0.586 0.414-0.718 0.918-0.161 0.586-0.083 1.199 0.238 1.839l0.523 0.801c-0.027-0.613 0.078-0.984 0.317-1.121 0.32-0.211 0.507-0.387 0.562-0.519 0.188-0.481 0.211-0.985 0.078-1.52z" inkscape:connector-curvature="0"/>
      <path id="path228" style="fill-rule:evenodd;fill:#8483b2" d="m36.289 84.381 0.16-0.36c0.078-0.293 0.067-0.625-0.043-1-0.183-0.879-1.105-1.32-2.758-1.32-0.347 0.027-0.707-0.117-1.082-0.438l-0.48-0.441c0.242 0.641 0.602 1.215 1.082 1.719 0.238 0.269 0.492 0.523 0.758 0.761 0.375 0.614 0.773 0.973 1.203 1.079 0.105 0.027 0.492 0.027 1.16 0z" inkscape:connector-curvature="0"/>
      <path id="path230" style="fill-rule:evenodd;fill:#8483b2" d="m37.289 85.021c0.691 0 1.52-0.199 2.477-0.598 0.617-0.292 1.043-0.679 1.281-1.16-0.215 0.133-0.465 0.239-0.758 0.321-0.59 0.16-1.094 0.066-1.523-0.282-0.614-0.507-1.094-0.828-1.438-0.961-0.48-0.21-0.879-0.16-1.199 0.161-0.348 0.32-0.348 0.828 0 1.519 0.344 0.695 0.73 1.027 1.16 1z" inkscape:connector-curvature="0"/>
      <path id="path232" style="fill-rule:evenodd;fill:#8483b2" d="m35.648 83.341 0.758 0.082c0.508-0.054 0.801-0.308 0.883-0.761 0.078-0.453-0.082-0.852-0.48-1.199-0.536-0.375-0.922-0.653-1.161-0.84-0.293-0.242-0.468-0.668-0.519-1.282-0.027-0.293-0.027-0.558 0-0.8-0.109 0.347-0.242 0.976-0.402 1.882-0.161 1.305 0.148 2.278 0.921 2.918z" inkscape:connector-curvature="0"/>
      <path id="path234" style="fill-rule:evenodd;fill:#abaacc" d="m35.727 84.744c0.347 0.398 0.679 0.504 1 0.32 0.32-0.215 0.199-0.629-0.36-1.242-0.613-0.664-1.012-0.852-1.199-0.559-0.215 0.266-0.027 0.758 0.559 1.481z" inkscape:connector-curvature="0"/>
      <path id="path236" style="fill-rule:evenodd;fill:#5c5a98" d="m96.289 84.744c-0.055-0.613-0.269-1.094-0.641-1.442-0.375-0.375-0.8-0.519-1.281-0.441-0.48 0.082-0.867 0.363-1.16 0.84-0.266 0.48-0.387 1.027-0.359 1.64 0.05 0.614 0.265 1.094 0.64 1.442 0.371 0.375 0.801 0.519 1.282 0.441 0.453-0.082 0.824-0.363 1.117-0.843 0.32-0.477 0.453-1.024 0.402-1.637z" inkscape:connector-curvature="0"/>
      <g id="g238">
        <g id="g240">
          <g id="g246">
            <path id="path254" style="fill-rule:evenodd;fill:url(#linearGradient248)" d="m88.527 78.142c-0.547 2.028-1.601 2.84-3.16 2.442l1.199 0.437c1.493 0.055 2.629-1 3.403-3.16 0.211 1.148 0.57 2.227 1.078 3.242 0.641 1.278 1.387 2.172 2.242 2.68l0.117-0.481c-0.851-0.8-1.519-1.867-2-3.199-0.265-0.801-0.508-1.855-0.718-3.16l0.199 0.359 1 1.161c0.801 0.64 1.562 0.558 2.281-0.239-0.426 0.317-0.852 0.371-1.281 0.157-0.879-0.399-1.332-1.907-1.36-4.52-0.558-0.133-0.972-0.172-1.238-0.117-0.187 0.027-0.48 0.133-0.883 0.32l-0.519 0.277c0.082 1.36-0.039 2.629-0.36 3.801z" inkscape:connector-curvature="0"/>
          </g>
        </g>
      </g>
      <path id="path256" style="fill-rule:evenodd;fill:#8583b0" d="m94.887 87.021c-0.348-1.598-0.731-2.48-1.16-2.64-0.321-0.133-0.586-0.012-0.797 0.363-0.16 0.371-0.387 1.226-0.684 2.558-0.16 0.668-0.574 1.188-1.238 1.559l-0.961 0.363c1.226 0.559 2.402 0.36 3.519-0.601 0.563-0.481 1-1.016 1.321-1.602z" inkscape:connector-curvature="0"/>
      <path id="path258" style="fill-rule:evenodd;fill:#8583b0" d="m94.648 85.142c-0.132 0.696-0.093 1.36 0.118 2 0.054 0.188 0.269 0.399 0.64 0.641 0.266 0.187 0.375 0.68 0.321 1.48l0.558-1.039c0.348-0.828 0.442-1.629 0.281-2.402-0.105-0.691-0.371-1.106-0.8-1.238-0.399-0.161-0.774 0.023-1.118 0.558z" inkscape:connector-curvature="0"/>
      <path id="path260" style="fill-rule:evenodd;fill:#8583b0" d="m97.727 82.103c-0.801-0.027-1.465 0.121-2 0.438-0.586 0.297-0.946 0.722-1.082 1.281-0.106 0.48-0.106 0.934 0 1.359l0.16 0.481c0.75 0.027 1.175 0.027 1.281 0 0.48-0.16 0.934-0.653 1.359-1.481 0.055-0.133 0.336-0.465 0.84-1 0.508-0.664 0.895-1.414 1.16-2.238-0.504 0.801-1.078 1.188-1.718 1.16z" inkscape:connector-curvature="0"/>
      <path id="path262" style="fill-rule:evenodd;fill:#8583b0" d="m95.008 85.142c0.375-0.906 0.359-1.574-0.039-2-0.375-0.398-0.817-0.48-1.321-0.238-0.402 0.184-0.933 0.613-1.601 1.277-0.453 0.453-1.012 0.586-1.68 0.403l-0.879-0.403 0.317 0.563c0.32 0.398 0.695 0.703 1.121 0.918 1.015 0.535 1.933 0.812 2.762 0.84 0.507 0 0.945-0.454 1.32-1.36z" inkscape:connector-curvature="0"/>
      <path id="path264" style="fill-rule:evenodd;fill:#8583b0" d="m95.488 84.263c0.879-0.882 1.227-2.175 1.039-3.882-0.16-1.2-0.304-2.024-0.441-2.477 0.16 1.305-0.024 2.227-0.559 2.758-0.613 0.453-1.039 0.828-1.281 1.121-0.453 0.453-0.641 0.984-0.558 1.598 0.082 0.589 0.398 0.91 0.96 0.96 0.293 0.028 0.575 0 0.84-0.078z" inkscape:connector-curvature="0"/>
      <path id="path266" style="fill-rule:evenodd;fill:#abaaca" d="m95.449 86.103c0.664-0.933 0.879-1.586 0.637-1.961-0.238-0.371-0.691-0.121-1.359 0.762-0.614 0.797-0.747 1.332-0.399 1.598 0.344 0.265 0.719 0.132 1.121-0.399z" inkscape:connector-curvature="0"/>
      <g id="g268">
        <g id="g284" mask="url(#mask276)">
          <g id="g296">
            <g id="g298" clip-path="url(#clipPath288)">
              <g id="g300" transform="translate(0 -.69760)">
                <g id="g304">
                  <g id="g306" clip-path="url(#clipPath292)">
                    <g id="g308">
                      <path id="path310" style="fill-rule:evenodd;fill:#5c5a98" d="m49.688 67.719c-0.055-0.266-0.254-0.453-0.602-0.559-0.32-0.133-0.68-0.148-1.078-0.039-0.403 0.106-0.719 0.277-0.961 0.52-0.238 0.238-0.332 0.492-0.281 0.757 0.082 0.27 0.281 0.454 0.601 0.563 0.321 0.133 0.68 0.144 1.082 0.039 0.399-0.105 0.719-0.281 0.957-0.52 0.242-0.242 0.336-0.492 0.282-0.761z" inkscape:connector-curvature="0"/>
                      <path id="path312" style="fill-rule:evenodd;fill:#5c5a98" d="m36.848 56.68c0.027-0.239-0.106-0.453-0.399-0.641-0.269-0.184-0.601-0.293-1-0.32-0.429-0.024-0.789 0.043-1.082 0.203-0.293 0.156-0.441 0.371-0.441 0.637-0.024 0.242 0.109 0.453 0.402 0.64 0.266 0.188 0.613 0.293 1.039 0.321 0.399 0.027 0.746-0.04 1.039-0.2s0.442-0.375 0.442-0.64z" inkscape:connector-curvature="0"/>
                      <path id="path314" style="fill-rule:evenodd;fill:#5c5a98" d="m94.605 56.359c0-0.238-0.132-0.453-0.398-0.64-0.293-0.184-0.641-0.293-1.039-0.321-0.402-0.027-0.746 0.043-1.039 0.204-0.297 0.16-0.457 0.371-0.481 0.636 0 0.242 0.145 0.457 0.438 0.641 0.269 0.187 0.602 0.293 1 0.32 0.402 0.028 0.75-0.039 1.043-0.199s0.453-0.375 0.476-0.641z" inkscape:connector-curvature="0"/>
                      <path id="path316" style="fill-rule:evenodd;fill:#5c5a98" d="m117.73 63.559c0-0.266-0.133-0.493-0.399-0.68-0.293-0.184-0.64-0.293-1.039-0.32-0.402 0-0.75 0.082-1.043 0.242s-0.453 0.359-0.48 0.597c-0.024 0.27 0.109 0.497 0.402 0.68 0.266 0.188 0.613 0.297 1.039 0.32 0.398 0.028 0.746-0.05 1.039-0.238 0.293-0.16 0.453-0.359 0.481-0.601z" inkscape:connector-curvature="0"/>
                      <path id="path318" style="fill-rule:evenodd;fill:#5c5a98" d="m56.848 61.801c0.054-0.321-0.188-0.535-0.719-0.641-0.481-0.055-0.75 0.094-0.801 0.442-0.055 0.371 0.172 0.586 0.68 0.636 0.508 0.055 0.785-0.093 0.84-0.437z" inkscape:connector-curvature="0"/>
                      <path id="path320" style="fill-rule:evenodd;fill:#5c5a98" d="m16.566 64.359c0.055-0.32-0.183-0.531-0.718-0.64-0.215-0.024-0.399 0-0.559 0.082-0.16 0.105-0.254 0.226-0.281 0.359 0 0.375 0.238 0.586 0.719 0.641 0.507 0.054 0.789-0.094 0.839-0.442z" inkscape:connector-curvature="0"/>
                      <path id="path322" style="fill-rule:evenodd;fill:#5c5a98" d="m31.969 61.922c0.051-0.375-0.176-0.59-0.68-0.641-0.508-0.054-0.789 0.094-0.84 0.438-0.054 0.32 0.184 0.535 0.719 0.64 0.48 0.055 0.746-0.093 0.801-0.437z" inkscape:connector-curvature="0"/>
                      <path id="path324" style="fill-rule:evenodd;fill:#5c5a98" d="m15.809 66.801c0.05-0.321-0.176-0.535-0.68-0.641-0.508-0.055-0.789 0.094-0.84 0.442-0.055 0.371 0.184 0.586 0.719 0.636 0.48 0.055 0.746-0.093 0.801-0.437z" inkscape:connector-curvature="0"/>
                      <path id="path326" style="fill-rule:evenodd;fill:#5c5a98" d="m86.207 54.68c0.027-0.133-0.027-0.266-0.16-0.399-0.133-0.109-0.305-0.176-0.52-0.203-0.507-0.105-0.785 0.043-0.839 0.442-0.028 0.132 0.039 0.265 0.199 0.402 0.133 0.105 0.308 0.172 0.519 0.199 0.481 0.051 0.746-0.094 0.801-0.441z" inkscape:connector-curvature="0"/>
                      <path id="path328" style="fill-rule:evenodd;fill:#5c5a98" d="m42.367 68.039c0.055-0.371-0.172-0.586-0.679-0.641-0.508-0.05-0.786 0.094-0.84 0.442-0.055 0.32 0.187 0.535 0.718 0.64 0.481 0.055 0.746-0.093 0.801-0.441z" inkscape:connector-curvature="0"/>
                      <path id="path330" style="fill-rule:evenodd;fill:#5c5a98" d="m28.527 64c0.055-0.293-0.132-0.465-0.558-0.52-0.43-0.054-0.668 0.079-0.723 0.399-0.051 0.266 0.149 0.43 0.602 0.48 0.187 0.028 0.347 0 0.48-0.078 0.133-0.054 0.199-0.148 0.199-0.281z" inkscape:connector-curvature="0"/>
                      <path id="path332" style="fill-rule:evenodd;fill:#5c5a98" d="m75.527 64.16c0.055-0.375-0.187-0.586-0.718-0.64-0.481-0.055-0.75 0.093-0.801 0.441-0.055 0.32 0.172 0.531 0.68 0.641 0.507 0.05 0.785-0.094 0.839-0.442z" inkscape:connector-curvature="0"/>
                      <path id="path334" style="fill-rule:evenodd;fill:#5c5a98" d="m39.688 56.441c0.027-0.136-0.028-0.269-0.161-0.402-0.132-0.105-0.304-0.172-0.519-0.199-0.508-0.055-0.785 0.094-0.84 0.441-0.027 0.133 0.027 0.266 0.16 0.399 0.16 0.105 0.332 0.175 0.52 0.199 0.507 0.082 0.785-0.067 0.84-0.438z" inkscape:connector-curvature="0"/>
                      <path id="path336" style="fill-rule:evenodd;fill:#5c5a98" d="m112.37 53.281c0.055-0.347-0.187-0.547-0.719-0.601-0.187-0.051-0.359-0.028-0.519 0.082-0.16 0.078-0.254 0.183-0.281 0.316-0.055 0.375 0.172 0.59 0.679 0.641 0.508 0.054 0.785-0.094 0.84-0.438z" inkscape:connector-curvature="0"/>
                      <path id="path338" style="fill-rule:evenodd;fill:#5c5a98" d="m98.449 56.16c0.024-0.133-0.027-0.265-0.16-0.398-0.16-0.11-0.348-0.176-0.562-0.203-0.481-0.051-0.747 0.093-0.801 0.441-0.024 0.133 0.027 0.266 0.16 0.398 0.16 0.11 0.336 0.176 0.519 0.204 0.508 0.078 0.79-0.067 0.844-0.442z" inkscape:connector-curvature="0"/>
                      <path id="path340" style="fill-rule:evenodd;fill:#5c5a98" d="m128.53 61.961c0-0.348-0.238-0.563-0.718-0.641-0.215-0.027-0.403 0-0.563 0.078-0.16 0.11-0.254 0.227-0.277 0.364 0 0.371 0.238 0.586 0.719 0.636 0.507 0.055 0.785-0.093 0.839-0.437z" inkscape:connector-curvature="0"/>
                      <path id="path342" style="fill-rule:evenodd;fill:#5c5a98" d="m45.207 63.48c-0.055-0.347-0.348-0.601-0.879-0.761-0.508-0.16-1.105-0.172-1.801-0.039-0.695 0.105-1.265 0.308-1.718 0.601-0.43 0.321-0.629 0.641-0.602 0.957 0.055 0.348 0.348 0.602 0.879 0.762 0.535 0.133 1.137 0.145 1.801 0.039 0.695-0.105 1.265-0.305 1.718-0.598 0.457-0.32 0.657-0.64 0.602-0.961z" inkscape:connector-curvature="0"/>
                      <path id="path344" style="fill-rule:evenodd;fill:#5c5a98" d="m118.01 60.398c-0.028-0.343-0.293-0.613-0.801-0.796-0.48-0.215-1.066-0.297-1.758-0.243-0.695 0.028-1.281 0.176-1.761 0.442-0.508 0.265-0.747 0.57-0.719 0.918 0.051 0.32 0.332 0.586 0.84 0.801 0.503 0.187 1.093 0.265 1.757 0.242 0.696-0.055 1.282-0.203 1.762-0.442 0.481-0.265 0.707-0.574 0.68-0.922z" inkscape:connector-curvature="0"/>
                      <path id="path346" style="fill-rule:evenodd;fill:#5c5a98" d="m12.887 64.922c0.105-0.32-0.039-0.656-0.438-1-0.402-0.375-0.949-0.656-1.64-0.844-0.668-0.211-1.27-0.266-1.801-0.156-0.535 0.078-0.856 0.277-0.961 0.598-0.078 0.32 0.082 0.652 0.48 1 0.399 0.347 0.934 0.625 1.602 0.839 0.691 0.188 1.305 0.243 1.84 0.161 0.531-0.079 0.84-0.282 0.918-0.598z" inkscape:connector-curvature="0"/>
                      <path id="path348" style="fill-rule:evenodd;fill:#5c5a98" d="m102.77 58.84c-0.051-0.348-0.344-0.602-0.879-0.762-0.504-0.156-1.106-0.172-1.801-0.039-0.664 0.106-1.227 0.309-1.68 0.602-0.453 0.32-0.664 0.64-0.64 0.961 0.054 0.343 0.347 0.597 0.882 0.757 0.532 0.133 1.133 0.149 1.801 0.039 0.692-0.105 1.266-0.304 1.719-0.597 0.453-0.321 0.652-0.641 0.598-0.961z" inkscape:connector-curvature="0"/>
                      <path id="path350" style="fill-rule:evenodd;fill:#5c5a98" d="m48.566 58.441c-0.027-0.214-0.171-0.375-0.437-0.48-0.27-0.133-0.574-0.176-0.922-0.121s-0.625 0.172-0.84 0.359c-0.187 0.215-0.265 0.426-0.238 0.641 0.023 0.215 0.172 0.387 0.437 0.519 0.243 0.106 0.536 0.133 0.883 0.082 0.344-0.054 0.625-0.187 0.84-0.402 0.211-0.184 0.305-0.387 0.277-0.598z" inkscape:connector-curvature="0"/>
                      <path id="path352" style="fill-rule:evenodd;fill:#5c5a98" d="m83.328 53.32c-0.027-0.215-0.16-0.386-0.402-0.519-0.266-0.106-0.571-0.133-0.918-0.082-0.348 0.054-0.629 0.176-0.84 0.359-0.188 0.215-0.266 0.43-0.242 0.641 0.027 0.215 0.176 0.375 0.441 0.48 0.238 0.106 0.535 0.149 0.879 0.121 0.348-0.054 0.629-0.187 0.84-0.398 0.215-0.188 0.297-0.387 0.242-0.602z" inkscape:connector-curvature="0"/>
                      <path id="path354" style="fill-rule:evenodd;fill:#5c5a98" d="m107.57 66.922c-0.027-0.215-0.171-0.387-0.437-0.524-0.27-0.132-0.574-0.171-0.922-0.117-0.32 0.051-0.586 0.172-0.801 0.36-0.211 0.214-0.304 0.425-0.277 0.64 0.051 0.211 0.199 0.387 0.437 0.52 0.266 0.105 0.575 0.133 0.922 0.078 0.321-0.051 0.586-0.172 0.801-0.359 0.238-0.188 0.332-0.387 0.277-0.598z" inkscape:connector-curvature="0"/>
                      <path id="path356" style="fill-rule:evenodd;fill:#5c5a98" d="m122.57 65c-0.027-0.215-0.16-0.387-0.398-0.52-0.266-0.105-0.574-0.132-0.922-0.082-0.344 0.055-0.625 0.176-0.84 0.364-0.183 0.211-0.265 0.426-0.238 0.636 0.027 0.215 0.172 0.375 0.437 0.481 0.243 0.109 0.536 0.148 0.883 0.121 0.348-0.055 0.625-0.188 0.84-0.398 0.211-0.188 0.293-0.387 0.238-0.602z" inkscape:connector-curvature="0"/>
                      <path id="path358" style="fill-rule:evenodd;fill:#5c5a98" d="m58.488 56c-0.054-0.293-0.254-0.508-0.601-0.641-0.321-0.132-0.68-0.144-1.078-0.039-0.403 0.078-0.723 0.254-0.961 0.52-0.243 0.238-0.332 0.508-0.282 0.801 0.055 0.265 0.254 0.48 0.602 0.64 0.32 0.133 0.68 0.16 1.078 0.078 0.402-0.105 0.723-0.293 0.961-0.558 0.242-0.266 0.332-0.535 0.281-0.801z" inkscape:connector-curvature="0"/>
                      <path id="path360" style="fill-rule:evenodd;fill:#5c5a98" d="m50.246 63.84c-0.023 0.348 0.082 0.64 0.32 0.879 0.266 0.242 0.657 0.293 1.161 0.16 0.535-0.106 0.878-0.332 1.039-0.68 0.214-0.398-0.012-0.812-0.68-1.238 1.414-0.106 1.906-0.586 1.48-1.441-0.398-0.825-1.199-0.868-2.398-0.122 0.934-1.039 0.801-1.57-0.402-1.597-1.25-0.028-1.719 0.426-1.399 1.359-1.039-0.746-1.851-0.613-2.441 0.399-0.559 0.988 0.094 1.386 1.961 1.203-1.547 0.933-1.813 1.586-0.801 1.957 1.043 0.426 1.762 0.136 2.16-0.879zm0.082-0.68c-0.293-0.027-0.441 0.039-0.441 0.199l-0.039-0.199c-0.375 0.32-0.668 0.559-0.879 0.719 0.078-0.16 0.238-0.399 0.48-0.719 0.051-0.133 0.051-0.32 0-0.558-0.082-0.27-0.176-0.457-0.281-0.563-0.082-0.051-0.254-0.117-0.52-0.199-0.148-0.055-0.269-0.094-0.359-0.121 0.164 0.019 0.43 0.047 0.797 0.082 0.48 0.051 0.828-0.067 1.043-0.36 0.105-0.187 0.277-0.468 0.519-0.839-0.054 0.21-0.109 0.371-0.16 0.476-0.054 0.242-0.039 0.414 0.039 0.524 0.215 0.265 0.52 0.386 0.922 0.359 0.664-0.027 1.024-0.039 1.078-0.039-0.586 0.105-0.988 0.223-1.199 0.359h0.32c-0.507 0.051-0.679 0.321-0.519 0.797 0.266 0.535 0.41 0.867 0.437 1-0.238-0.371-0.464-0.625-0.679-0.758-0.106-0.082-0.293-0.132-0.559-0.16z" inkscape:connector-curvature="0"/>
                      <path id="path362" style="fill-rule:evenodd;fill:#5c5a98" d="m50.328 62.801c0.32-0.055 0.453-0.199 0.399-0.442-0.055-0.238-0.227-0.332-0.52-0.281-0.32 0.055-0.453 0.203-0.398 0.442 0.05 0.242 0.226 0.335 0.519 0.281z" inkscape:connector-curvature="0"/>
                      <path id="path364" style="fill-rule:evenodd;fill:#5c5a98" d="m123.81 65.121h0.32c-0.563 0.051-0.75 0.371-0.563 0.957 0.321 0.617 0.496 0.988 0.52 1.121-0.293-0.426-0.547-0.707-0.758-0.84-0.16-0.105-0.375-0.171-0.64-0.199-0.348-0.027-0.52 0.055-0.52 0.238l-0.082-0.277-0.957 0.84c0.105-0.16 0.293-0.426 0.559-0.801 0.054-0.16 0.039-0.398-0.04-0.719-0.082-0.296-0.187-0.496-0.32-0.601l-1.16-0.399c0.266-0.027 0.625 0.012 1.078 0.118 0.508 0.054 0.895-0.094 1.16-0.438 0.133-0.215 0.336-0.535 0.602-0.961-0.082 0.238-0.133 0.426-0.16 0.559-0.082 0.269-0.067 0.469 0.039 0.601 0.242 0.321 0.574 0.465 1 0.442 0.828-0.055 1.254-0.082 1.281-0.082-0.668 0.132-1.121 0.281-1.359 0.441zm-0.883 2.84c0.32 0.293 0.762 0.371 1.32 0.238 0.586-0.16 0.977-0.426 1.16-0.801 0.242-0.476-0.011-0.972-0.758-1.476 1.575-0.137 2.118-0.684 1.641-1.641-0.453-0.988-1.348-1.054-2.684-0.203 1.043-1.199 0.883-1.812-0.476-1.84-1.414-0.023-1.934 0.508-1.563 1.602-0.504-0.399-1.05-0.52-1.64-0.36-0.504 0.106-0.864 0.375-1.078 0.801-0.668 1.145 0.054 1.614 2.16 1.399-1.735 1.066-2.028 1.84-0.879 2.32 1.199 0.48 2.012 0.133 2.437-1.039-0.027 0.398 0.094 0.734 0.36 1z" inkscape:connector-curvature="0"/>
                      <path id="path366" style="fill-rule:evenodd;fill:#5c5a98" d="m122.65 65.719c0.344-0.051 0.493-0.211 0.438-0.481 0-0.293-0.184-0.41-0.559-0.359-0.32 0.055-0.48 0.226-0.48 0.519 0.055 0.27 0.254 0.375 0.601 0.321z" inkscape:connector-curvature="0"/>
                      <path id="path368" style="fill-rule:evenodd;fill:#5c5a98" d="m92.328 50.801h0.238c-0.371 0.051-0.492 0.293-0.359 0.719 0.215 0.453 0.332 0.734 0.359 0.839-0.211-0.32-0.398-0.531-0.558-0.64-0.082-0.078-0.215-0.133-0.403-0.16-0.238-0.024-0.343 0.027-0.316 0.16l-0.082-0.199-0.602 0.64c0.055-0.133 0.161-0.348 0.321-0.64 0.054-0.106 0.054-0.266 0-0.481-0.051-0.238-0.133-0.398-0.238-0.48-0.028-0.024-0.149-0.094-0.36-0.2-0.215-0.078-0.348-0.121-0.402-0.121 0.16-0.023 0.402 0.016 0.722 0.121 0.344 0.055 0.598-0.05 0.758-0.32l0.36-0.719c-0.133 0.426-0.145 0.719-0.039 0.879 0.16 0.242 0.386 0.348 0.679 0.321h0.801c-0.535 0.16-0.824 0.253-0.879 0.281zm-0.519 2.078c0.211 0.242 0.503 0.309 0.879 0.199 0.374-0.105 0.628-0.305 0.761-0.598 0.133-0.347-0.054-0.707-0.562-1.082 1.066-0.05 1.429-0.453 1.082-1.199-0.321-0.746-0.922-0.801-1.801-0.16 0.664-0.879 0.559-1.344-0.32-1.398-0.934-0.028-1.266 0.359-1 1.16-0.774-0.668-1.375-0.563-1.801 0.32-0.426 0.824 0.055 1.184 1.441 1.078-1.121 0.774-1.308 1.336-0.562 1.68 0.801 0.375 1.336 0.133 1.601-0.719 0 0.293 0.094 0.535 0.282 0.719z" inkscape:connector-curvature="0"/>
                      <path id="path370" style="fill-rule:evenodd;fill:#5c5a98" d="m91.566 51.238c0.215-0.05 0.321-0.172 0.321-0.359-0.051-0.184-0.188-0.277-0.399-0.277-0.215 0.05-0.32 0.171-0.32 0.359 0.055 0.238 0.187 0.332 0.398 0.277z" inkscape:connector-curvature="0"/>
                      <path id="path372" style="fill-rule:evenodd;fill:#5c5a98" d="m83.246 65.199c-0.023 0.348 0.066 0.641 0.281 0.879 0.266 0.297 0.641 0.375 1.121 0.242 0.454-0.132 0.758-0.375 0.918-0.718 0.161-0.403-0.066-0.829-0.679-1.282 1.281-0.082 1.718-0.558 1.32-1.441-0.375-0.879-1.094-0.945-2.16-0.199 0.828-1.067 0.695-1.625-0.399-1.68-1.148-0.055-1.562 0.414-1.242 1.398-0.933-0.824-1.664-0.703-2.199 0.364-0.508 1.011 0.082 1.437 1.762 1.277-1.387 0.934-1.614 1.613-0.68 2.039 0.984 0.457 1.637 0.16 1.957-0.879zm1.242 0.242c-0.242-0.375-0.453-0.629-0.64-0.761-0.106-0.078-0.282-0.145-0.52-0.2-0.293-0.027-0.426 0.04-0.402 0.2l-0.078-0.239-0.762 0.758c0.082-0.16 0.23-0.398 0.441-0.719 0.028-0.16 0.012-0.375-0.039-0.64-0.082-0.266-0.172-0.442-0.281-0.52-0.027-0.054-0.187-0.132-0.48-0.242-0.266-0.105-0.426-0.156-0.481-0.156 0.137-0.027 0.442 0.023 0.922 0.156 0.426 0.055 0.734-0.078 0.918-0.398 0.109-0.188 0.269-0.465 0.48-0.84-0.05 0.215-0.093 0.387-0.117 0.519-0.054 0.215-0.054 0.375 0 0.481 0.211 0.293 0.492 0.426 0.84 0.398 0.613-0.023 0.945-0.023 1 0-0.535 0.11-0.894 0.227-1.082 0.364h0.281c-0.453 0.05-0.601 0.332-0.441 0.839 0.265 0.532 0.414 0.864 0.441 1z" inkscape:connector-curvature="0"/>
                      <path id="path374" style="fill-rule:evenodd;fill:#5c5a98" d="m83.289 64.121c0.293-0.055 0.41-0.199 0.359-0.441 0-0.106-0.054-0.188-0.16-0.239-0.082-0.082-0.187-0.109-0.32-0.082-0.242 0.055-0.359 0.2-0.359 0.442 0.05 0.265 0.211 0.371 0.48 0.32z" inkscape:connector-curvature="0"/>
                      <path id="path376" style="fill-rule:evenodd;fill:#5c5a98" d="m22.406 71.762c0.266 0.265 0.629 0.332 1.082 0.199 0.453-0.106 0.758-0.336 0.918-0.68 0.188-0.426-0.027-0.867-0.64-1.32 1.254-0.082 1.695-0.563 1.32-1.441-0.371-0.879-1.106-0.946-2.199-0.2 0.828-1.066 0.695-1.625-0.399-1.679-1.148-0.028-1.562 0.453-1.242 1.437-0.934-0.851-1.664-0.746-2.199 0.32-0.481 1.043 0.121 1.481 1.801 1.321-1.387 0.933-1.625 1.601-0.719 2 0.984 0.453 1.637 0.16 1.957-0.879 0 0.375 0.109 0.68 0.32 0.922zm0.481-1.684c0.082 0.27 0.226 0.617 0.441 1.043-0.242-0.402-0.453-0.668-0.64-0.801-0.161-0.082-0.333-0.132-0.52-0.16-0.266-0.027-0.402 0.039-0.402 0.199l-0.039-0.238c-0.348 0.32-0.614 0.559-0.801 0.719 0.082-0.133 0.226-0.375 0.441-0.719 0.055-0.133 0.039-0.336-0.039-0.601-0.055-0.266-0.133-0.454-0.242-0.559l-0.957-0.359c0.211-0.028 0.504 0.011 0.879 0.117 0.426 0.054 0.734-0.078 0.918-0.399 0.109-0.187 0.269-0.465 0.48-0.84-0.051 0.215-0.094 0.387-0.117 0.52-0.055 0.238-0.043 0.414 0.039 0.52 0.188 0.292 0.453 0.425 0.801 0.402 0.664-0.027 1.012-0.043 1.039-0.043-0.535 0.109-0.906 0.226-1.121 0.359h0.281c-0.453 0.055-0.601 0.336-0.441 0.84z" inkscape:connector-curvature="0"/>
                      <path id="path378" style="fill-rule:evenodd;fill:#5c5a98" d="m22.129 69.762c0.266-0.055 0.398-0.203 0.398-0.442-0.054-0.242-0.215-0.332-0.48-0.281-0.293 0-0.414 0.133-0.359 0.402 0 0.266 0.144 0.371 0.441 0.321z" inkscape:connector-curvature="0"/>
                      <path id="path380" style="fill-rule:evenodd;fill:#5c5a98" d="m25.848 60.398c-0.106 0-0.215 0.043-0.321 0.122-0.132 0.082-0.132 0.16 0 0.242l-0.199-0.082 0.199 0.64c-0.16-0.293-0.265-0.465-0.32-0.519-0.055-0.082-0.187-0.188-0.398-0.321-0.215-0.105-0.375-0.16-0.481-0.16l-0.562 0.16c0.054-0.105 0.187-0.199 0.402-0.281 0.187-0.105 0.215-0.277 0.078-0.519l-0.398-0.602c0.132 0.11 0.347 0.297 0.64 0.563 0.266 0.054 0.465 0.011 0.598-0.121 0.187-0.239 0.297-0.36 0.32-0.36-0.105 0.238-0.16 0.442-0.16 0.602l0.121-0.121c-0.133 0.187 0 0.371 0.399 0.558 0.214 0.106 0.496 0.227 0.839 0.36-0.343-0.106-0.597-0.161-0.757-0.161zm1.359 0.563c0.105-0.242 0.066-0.469-0.121-0.68-0.211-0.293-0.57-0.441-1.078-0.441 0.398-0.481 0.238-0.879-0.481-1.199-0.718-0.293-1.039-0.067-0.961 0.679-0.398-0.828-0.812-1.054-1.238-0.679-0.453 0.398-0.293 0.785 0.481 1.16-0.883-0.055-1.067 0.265-0.563 0.961 0.481 0.691 0.988 0.691 1.52 0 0.109 0.957 0.468 1.383 1.082 1.277 0.64-0.133 0.679-0.519 0.121-1.16 0.238 0.187 0.465 0.293 0.679 0.32 0.293 0.055 0.481-0.027 0.559-0.238z" inkscape:connector-curvature="0"/>
                      <path id="path382" style="fill-rule:evenodd;fill:#5c5a98" d="m25.289 60.32c0.051-0.105 0-0.215-0.16-0.32-0.188-0.133-0.32-0.133-0.402 0-0.055 0.105 0 0.227 0.16 0.359 0.187 0.082 0.32 0.067 0.402-0.039z" inkscape:connector-curvature="0"/>
                      <path id="path384" style="fill-rule:evenodd;fill:#5c5a98" d="m63.168 60.199c0.055 0.266 0.172 0.469 0.359 0.602 0.266 0.16 0.586 0.16 0.961 0 0.371-0.16 0.598-0.387 0.68-0.68 0.105-0.348-0.133-0.641-0.719-0.883 1.09-0.265 1.41-0.703 0.957-1.316-0.426-0.59-1.051-0.508-1.879 0.238 0.559-0.961 0.387-1.359-0.519-1.199-0.961 0.16-1.254 0.586-0.879 1.277-0.883-0.476-1.481-0.277-1.801 0.602-0.293 0.855 0.254 1.082 1.641 0.68-1.067 0.933-1.188 1.48-0.364 1.64 0.883 0.188 1.403-0.133 1.563-0.961zm1.078 0c-0.238-0.265-0.453-0.437-0.641-0.519-0.105-0.028-0.25-0.039-0.437-0.039-0.242 0.027-0.348 0.105-0.32 0.238l-0.082-0.199-0.559 0.679c0.188-0.347 0.281-0.547 0.281-0.597 0.028-0.11-0.015-0.254-0.121-0.442-0.078-0.215-0.172-0.347-0.281-0.398-0.051-0.027-0.184-0.055-0.398-0.082-0.172-0.035-0.293-0.055-0.36-0.059 0.125-0.015 0.352-0.019 0.68-0.019 0.347-0.028 0.586-0.176 0.719-0.442l0.32-0.718c-0.027 0.183-0.039 0.32-0.039 0.398-0.028 0.188 0 0.32 0.078 0.398 0.215 0.188 0.469 0.243 0.762 0.161 0.535-0.133 0.812-0.2 0.84-0.2-0.454 0.161-0.747 0.321-0.879 0.481l0.16-0.059c-0.309 0.121-0.375 0.352-0.203 0.699 0.296 0.375 0.457 0.614 0.48 0.719z" inkscape:connector-curvature="0"/>
                      <path id="path386" style="fill-rule:evenodd;fill:#5c5a98" d="m63.086 59.359c0.242-0.105 0.32-0.238 0.242-0.398-0.055-0.16-0.187-0.215-0.402-0.16-0.238 0.078-0.332 0.211-0.278 0.398 0.051 0.215 0.2 0.266 0.438 0.16z" inkscape:connector-curvature="0"/>
                    </g>
                  </g>
                </g>
              </g>
            </g>
          </g>
        </g>
      </g>
      <g id="g388">
        <g id="g390">
          <g id="g396">
            <path id="path404" style="fill-rule:evenodd;fill:url(#linearGradient398)" d="m53.605 97.302c-3.117-2.906-4.625-7.187-4.519-12.839 0.055-2.801 0.414-5.321 1.082-7.559-1.895-0.508-3.348-0.734-4.359-0.68l-0.922 0.239c0.187 2.293-0.172 4.105-1.078 5.441l-1.403 1.277c1.762-0.586 2.906-1.851 3.442-3.8 0.265-0.985 0.359-1.907 0.281-2.758 0.293 2.105-0.067 4.8-1.082 8.078l-1.598 4.281c1.547-1.84 2.774-4.414 3.68-7.719 0.402-1.422 0.683-2.699 0.84-3.84-0.707 6.137 0 11.27 2.117 15.399 1.094 2.133 2.269 3.625 3.519 4.48z" inkscape:connector-curvature="0"/>
          </g>
        </g>
      </g>
    </g>
  </g>
<metadata><rdf:RDF><cc:Work><dc:format>image/svg+xml</dc:format><dc:type rdf:resource="http://purl.org/dc/dcmitype/StillImage"/><cc:license rdf:resource="http://creativecommons.org/licenses/publicdomain/"/><dc:publisher><cc:Agent rdf:about="http://openclipart.org/"><dc:title>Openclipart</dc:title></cc:Agent></dc:publisher></cc:Work><cc:License rdf:about="http://creativecommons.org/licenses/publicdomain/"><cc:permits rdf:resource="http://creativecommons.org/ns#Reproduction"/><cc:permits rdf:resource="http://creativecommons.org/ns#Distribution"/><cc:permits rdf:resource="http://creativecommons.org/ns#DerivativeWorks"/></cc:License></rdf:RDF></metadata></svg>
